<?xml version="1.0" standalone="no"?>
<!DOCTYPE svg PUBLIC "-//W3C//DTD SVG 20010904//EN"
 "http://www.w3.org/TR/2001/REC-SVG-20010904/DTD/svg10.dtd">
<svg version="1.0" xmlns="http://www.w3.org/2000/svg"
 width="8001.000000pt" height="4501.000000pt" viewBox="0 0 8001.000000 4501.000000"
 preserveAspectRatio="xMidYMid meet">

<g transform="translate(0.000000,4501.000000) scale(0.100000,-0.100000)"
fill="#000000" stroke="none">
<path d="M54005 42436 c-145 -29 -280 -92 -389 -182 -327 -270 -394 -763 -151
-1111 42 -59 45 -67 31 -82 -52 -58 -61 -177 -20 -260 l27 -52 -143 -1312
c-78 -722 -144 -1331 -147 -1354 l-6 -43 -113 0 -114 0 0 165 0 165 -535 0
-535 0 0 -165 0 -164 -72 -3 -73 -3 0 -320 0 -320 73 -3 72 -3 0 -5934 0
-5935 -1922 0 -1923 0 48 41 47 41 0 69 0 69 -225 0 -225 0 0 160 c0 135 -2
160 -15 160 -13 0 -15 42 -17 298 l-3 297 -1357 3 -1358 2 0 185 0 185 105 0
105 0 0 365 0 365 -350 0 -350 0 0 125 c0 118 1 125 20 125 18 0 20 7 20 75
l0 75 -360 0 -360 0 -1 613 c-3 2245 1 2647 26 2647 26 0 81 58 93 98 7 22 12
60 12 85 l0 46 -52 19 c-29 11 -79 28 -110 38 l-58 18 0 237 0 238 -52 16
c-29 8 -123 30 -210 48 l-158 32 0 435 0 435 22 10 c31 14 65 68 73 116 6 36
4 44 -21 70 -33 35 -90 69 -154 93 l-45 17 -17 87 c-21 109 -70 207 -146 291
l-57 65 -1 350 c0 373 -6 441 -59 729 -79 428 -243 873 -460 1253 -334 581
-812 1081 -1425 1491 -149 100 -213 161 -229 219 -6 22 -11 83 -11 137 l0 97
-30 0 -30 0 0 135 0 135 -115 0 -115 0 0 611 0 611 25 30 c17 20 25 42 25 69
0 21 -4 39 -9 39 -5 0 -14 20 -20 44 -13 54 -45 81 -120 102 -69 20 -133 56
-160 90 -18 23 -21 41 -21 126 0 109 8 134 47 149 24 9 25 12 20 64 -5 49 -24
99 -62 165 -8 14 -24 50 -36 82 -21 55 -22 61 -11 240 18 308 51 466 128 620
19 37 34 74 34 82 0 40 -102 63 -134 30 -9 -9 -16 -32 -16 -55 0 -50 -24 -63
-53 -28 -16 20 -18 33 -13 86 6 54 4 65 -14 83 -22 22 -66 26 -104 9 -29 -14
-50 -65 -41 -102 14 -55 -48 -45 -66 11 -18 57 -46 97 -76 111 -25 11 -29 10
-46 -10 -22 -28 -19 -54 23 -184 15 -49 31 -120 34 -157 4 -37 13 -86 22 -110
8 -24 19 -104 24 -178 5 -74 17 -187 25 -249 21 -146 10 -227 -41 -302 -38
-57 -54 -105 -54 -165 0 -35 4 -43 23 -48 35 -8 47 -47 47 -145 0 -75 -3 -93
-23 -122 -25 -38 -110 -84 -172 -95 -51 -8 -101 -57 -110 -107 -4 -20 -11 -37
-16 -37 -5 0 -9 -18 -9 -39 0 -27 8 -49 25 -69 l25 -30 0 -611 0 -611 -115 0
-115 0 0 -135 0 -135 -29 0 -29 0 -4 -112 c-6 -171 -24 -197 -240 -341 -426
-284 -808 -634 -1099 -1007 -397 -509 -672 -1118 -788 -1745 -51 -274 -55
-333 -56 -711 l0 -360 -58 -65 c-83 -92 -157 -255 -157 -349 0 -21 -9 -29 -58
-48 -73 -30 -150 -79 -163 -104 -21 -38 -1 -108 42 -151 l39 -39 0 -432 0
-433 -152 -31 c-84 -17 -177 -38 -205 -47 l-53 -16 0 -238 0 -238 -47 -13
c-27 -7 -76 -24 -110 -38 l-63 -24 0 -54 c0 -30 6 -69 14 -87 14 -36 69 -87
92 -87 12 0 14 -46 14 -293 0 -160 4 -307 9 -325 6 -21 8 -528 4 -1338 l-6
-1304 -359 0 -358 0 0 -75 c0 -68 2 -75 20 -75 19 0 20 -7 20 -125 l0 -125
-350 0 -350 0 0 -365 0 -365 100 0 100 0 0 -185 0 -185 -1355 0 -1355 0 0
-300 c0 -293 0 -300 -20 -300 -19 0 -20 -7 -20 -160 l0 -160 -220 0 -220 0 0
-69 0 -69 46 -41 47 -41 -119 0 c-96 0 -5067 0 -5306 0 l-68 0 0 5125 0 5125
-230 0 -230 0 0 865 0 865 230 0 230 0 -2 268 -3 267 -4820 0 -4820 0 -3 -267
-2 -268 230 0 230 0 0 -865 0 -865 -227 -2 -228 -3 0 -7600 0 -7600 227 -3
228 -2 0 -1180 0 -1179 -112 -3 -113 -3 -3 -112 -3 -113 -334 0 -335 0 2 1037
3 1036 83 49 82 49 0 49 0 50 -80 0 -80 0 0 420 c0 413 0 420 20 420 18 0 20
7 20 70 l0 70 -35 0 -35 0 0 4088 c0 2248 0 4524 0 5057 0 534 3 1063 7 1178
l6 207 24 0 c22 0 23 3 23 70 l0 70 -50 0 -50 0 0 465 c0 458 0 465 20 465 19
0 20 7 20 100 l0 100 60 0 60 0 0 70 c0 63 2 70 20 70 17 0 20 7 20 50 l0 50
-167 2 -167 3 -42 275 c-24 151 -46 290 -49 308 l-6 32 -2492 -2 -2492 -3 -47
-300 c-26 -165 -47 -303 -47 -307 -1 -5 -75 -8 -166 -8 l-165 0 0 -50 c0 -43
3 -50 20 -50 18 0 20 -7 20 -70 l0 -70 60 0 60 0 0 -100 c0 -82 3 -100 15
-100 13 0 15 -58 15 -464 l0 -465 -47 -3 -48 -3 -3 -67 -3 -68 29 0 29 0 6
-202 c4 -112 7 -2481 7 -5265 l0 -5063 -35 0 -35 0 0 -70 c0 -56 3 -70 15 -70
13 0 15 -53 15 -420 l0 -420 -76 0 -75 0 3 -52 3 -52 83 -49 82 -49 0 -1034 0
-1034 -2882 0 c-2501 0 -2897 -2 -2988 -15 -561 -80 -1045 -431 -1300 -944
-106 -212 -179 -506 -180 -723 l0 -38 36551 0 36551 0 -7 87 c-26 342 -116
610 -294 874 -254 379 -635 633 -1096 731 l-110 23 -2677 3 -2678 2 0 2175 c0
1927 2 2175 15 2175 13 0 15 26 15 170 l0 170 -45 0 -45 0 0 6209 0 6209 25
30 25 30 0 346 0 346 -440 0 -440 0 0 43 c-1 88 -69 176 -156 199 l-44 12 0
53 0 53 -125 0 -125 0 0 115 0 115 -320 0 -320 0 0 85 c0 61 -3 85 -12 85 -7
0 -565 22 -1241 49 l-1227 50 -1228 -50 c-675 -27 -1233 -49 -1239 -49 -10 0
-13 -24 -13 -85 l0 -85 -320 0 -320 0 0 -115 0 -114 -127 -3 -128 -3 -3 -52
c-3 -48 -5 -52 -31 -58 -91 -20 -161 -106 -161 -198 l0 -47 -440 0 -440 0 0
-346 0 -345 25 -33 25 -33 0 -6206 0 -6207 -45 0 -45 0 0 -170 c0 -144 2 -170
15 -170 13 0 15 -248 15 -2175 l0 -2175 -220 0 -220 0 0 9710 0 9710 75 0 75
0 0 325 0 325 -75 0 -75 0 0 165 0 165 -535 0 -535 0 0 -165 0 -165 -255 0
-255 0 -5 23 c-6 24 -175 869 -175 874 0 2 -808 3 -1795 3 -1429 0 -1795 3
-1795 13 -1 6 -45 415 -99 907 l-97 894 24 43 c44 79 40 185 -10 256 l-20 27
35 48 c50 68 103 180 129 269 33 112 33 324 0 436 -102 355 -407 597 -772 612
-67 3 -130 0 -175 -9z m484 -1721 c-10 -9 -333 -195 -340 -195 -9 0 -319 178
-333 191 -6 5 137 9 334 9 189 0 341 -2 339 -5z m-646 -165 c98 -56 175 -106
170 -111 -4 -4 -105 -64 -223 -133 -203 -118 -215 -124 -218 -101 -3 21 30
343 44 438 6 36 7 37 27 24 12 -7 102 -60 200 -117z m862 -118 c15 -134 25
-245 23 -248 -2 -2 -106 56 -231 128 -184 107 -223 134 -209 142 9 5 100 58
202 117 101 60 185 107 186 106 1 -1 14 -111 29 -245z m-343 -183 c114 -67
208 -123 208 -125 0 -2 -190 -4 -422 -4 -259 0 -418 4 -412 9 10 11 406 241
413 241 2 0 98 -54 213 -121z m193 -257 c-19 -16 -394 -222 -405 -222 -6 0
-104 52 -218 115 l-207 115 420 0 c230 0 415 -4 410 -8z m-755 -175 c118 -65
216 -120 218 -122 2 -1 -118 -70 -265 -153 -147 -83 -269 -149 -271 -148 -1 2
11 126 28 277 16 150 30 277 30 281 0 10 -11 16 260 -135z m987 -139 c17 -156
30 -284 29 -284 -2 -2 -524 290 -530 297 -5 4 447 265 465 268 3 1 19 -126 36
-281z m-386 -195 l247 -138 -249 -3 c-137 -1 -361 -1 -498 0 l-249 3 247 137
c135 76 248 138 250 138 2 0 115 -62 252 -137z m-14645 -108 c11 -27 14 -90
14 -295 l0 -260 -56 0 -56 0 4 273 c3 293 7 317 56 317 17 0 27 -9 38 -35z
m302 14 c28 -29 32 -67 32 -331 l0 -238 -80 0 -80 0 0 254 c0 257 5 299 37
324 25 18 70 14 91 -9z m276 -1 c14 -19 16 -65 16 -295 l0 -273 -50 0 -51 0 3
278 c3 293 6 312 49 312 10 0 25 -10 33 -22z m14282 -175 c-2 -5 -108 -60
-235 -123 l-231 -115 -231 115 c-127 63 -233 118 -235 123 -3 4 207 7 466 7
259 0 469 -3 466 -7z m-905 -157 l224 -116 -131 0 -131 0 -12 -67 c-7 -38 -17
-89 -22 -114 l-10 -46 -114 -59 c-62 -32 -115 -57 -118 -54 -3 4 56 561 62
579 2 6 22 -4 252 -123z m1132 92 c3 -18 9 -64 12 -103 4 -38 9 -78 11 -87 5
-17 -12 -18 -253 -17 l-258 0 235 119 c129 65 238 119 241 119 4 1 9 -14 12
-31z m-1276 -745 c-3 -16 -20 -103 -38 -195 l-33 -168 -84 0 c-75 0 -83 2 -78
18 2 9 12 97 22 195 l18 177 99 0 100 0 -6 -27z m-387 -6948 l0 -5935 -100 0
-100 0 -2 4128 c-2 2270 -2 4940 0 5935 l2 1807 100 0 100 0 0 -5935z m600 0
l0 -5935 -100 0 -100 0 -2 4128 c-2 2270 -2 4940 0 5935 l2 1807 100 0 100 0
0 -5935z m1240 0 l0 -5935 -100 0 -100 0 0 5935 0 5935 100 0 100 0 0 -5935z
m600 0 l0 -5935 -100 0 -100 0 -2 4128 c-2 2270 -2 4940 0 5935 l2 1807 100 0
100 0 0 -5935z m1220 50 c0 -5224 -2 -5885 -15 -5885 -11 0 -15 -12 -15 -50
l0 -50 -90 0 -90 0 0 5935 0 5935 105 0 105 0 0 -5885z m600 0 l0 -5885 -105
0 -105 0 0 5885 0 5885 105 0 105 0 0 -5885z m1240 -3825 l0 -9710 -100 0
-100 0 0 9710 0 9710 100 0 100 0 0 -9710z m600 0 l0 -9710 -100 0 -100 0 0
9710 0 9710 100 0 100 0 0 -9710z m2690 6705 l0 -205 -235 0 -235 0 0 205 0
205 235 0 235 0 0 -205z m1400 0 l0 -205 -235 0 -235 0 0 205 0 205 235 0 235
0 0 -205z m1410 0 l0 -205 -240 0 -240 0 0 205 0 205 240 0 240 0 0 -205z
m1400 0 l0 -205 -240 0 -240 0 0 205 0 205 240 0 240 0 0 -205z m1400 0 l0
-205 -240 0 -240 0 0 205 0 205 240 0 240 0 0 -205z m1400 0 l0 -205 -235 0
-235 0 0 205 0 205 235 0 235 0 0 -205z m-7010 -500 l0 -205 -235 0 -235 0 0
205 0 205 235 0 235 0 0 -205z m1400 0 l0 -205 -235 0 -235 0 0 205 0 205 235
0 235 0 0 -205z m1410 0 l0 -205 -240 0 -240 0 0 205 0 205 240 0 240 0 0
-205z m1400 0 l0 -205 -240 0 -240 0 0 205 0 205 240 0 240 0 0 -205z m1400 0
l0 -205 -240 0 -240 0 0 205 0 205 240 0 240 0 0 -205z m1400 0 l0 -205 -235
0 -235 0 0 205 0 205 235 0 235 0 0 -205z m-29650 -985 l0 -290 -175 0 -175 0
0 290 0 290 175 0 175 0 0 -290z m860 0 l0 -290 -180 0 -180 0 0 290 0 290
180 0 180 0 0 -290z m850 0 l0 -290 -175 0 -175 0 0 290 0 290 175 0 175 0 0
-290z m-2510 -15 l0 -285 -160 0 -160 0 0 285 0 285 160 0 160 0 0 -285z
m3280 0 l0 -285 -160 0 -160 0 0 285 0 285 160 0 160 0 0 -285z m-3990 -45 l0
-280 -135 0 -135 0 0 280 0 280 135 0 135 0 0 -280z m4640 0 l0 -280 -130 0
-130 0 0 280 0 280 130 0 130 0 0 -280z m19510 20 l0 -200 -235 0 -235 0 0
200 0 200 235 0 235 0 0 -200z m1400 0 l0 -200 -235 0 -235 0 0 200 0 200 235
0 235 0 0 -200z m1410 0 l0 -200 -240 0 -240 0 0 200 0 200 240 0 240 0 0
-200z m1400 0 l0 -200 -240 0 -240 0 0 200 0 200 240 0 240 0 0 -200z m1400 0
l0 -200 -240 0 -240 0 0 200 0 200 240 0 240 0 0 -200z m1400 0 l0 -200 -235
0 -235 0 0 200 0 200 235 0 235 0 0 -200z m-31670 -95 l0 -275 -100 0 -100 0
0 275 0 275 100 0 100 0 0 -275z m5600 0 l0 -275 -100 0 -100 0 0 275 0 275
100 0 100 0 0 -275z m-5930 -35 l0 -260 -60 0 -60 0 0 260 0 260 60 0 60 0 0
-260z m6170 0 l0 -260 -60 0 -60 0 0 260 0 260 60 0 60 0 0 -260z m18820 -370
l0 -200 -235 0 -235 0 0 200 0 200 235 0 235 0 0 -200z m1400 0 l0 -200 -235
0 -235 0 0 200 0 200 235 0 235 0 0 -200z m1410 0 l0 -200 -240 0 -240 0 0
200 0 200 240 0 240 0 0 -200z m1400 0 l0 -200 -240 0 -240 0 0 200 0 200 240
0 240 0 0 -200z m1400 0 l0 -200 -240 0 -240 0 0 200 0 200 240 0 240 0 0
-200z m1400 0 l0 -200 -235 0 -235 0 0 200 0 200 235 0 235 0 0 -200z m-57180
-5 l0 -135 -150 0 -150 0 0 135 0 135 150 0 150 0 0 -135z m690 0 l0 -135
-105 0 -105 0 0 135 0 135 105 0 105 0 0 -135z m350 0 l0 -135 -110 0 -110 0
0 135 0 135 110 0 110 0 0 -135z m650 50 l0 -85 -55 0 -55 0 0 85 0 85 55 0
55 0 0 -85z m310 0 l0 -85 -60 0 -60 0 0 85 0 85 60 0 60 0 0 -85z m750 -50
l0 -135 -105 0 -105 0 0 135 0 135 105 0 105 0 0 -135z m350 0 l0 -135 -110 0
-110 0 0 135 0 135 110 0 110 0 0 -135z m770 0 l0 -135 -145 0 -145 0 0 135 0
135 145 0 145 0 0 -135z m-2180 -170 l0 -85 -55 0 -55 0 0 85 0 85 55 0 55 0
0 -85z m310 0 l0 -85 -60 0 -60 0 0 85 0 85 60 0 60 0 0 -85z m-2000 -160 l0
-135 -150 0 -150 0 0 135 0 135 150 0 150 0 0 -135z m690 0 l0 -135 -105 0
-105 0 0 135 0 135 105 0 105 0 0 -135z m350 0 l0 -135 -110 0 -110 0 0 135 0
135 110 0 110 0 0 -135z m1710 0 l0 -135 -105 0 -105 0 0 135 0 135 105 0 105
0 0 -135z m350 0 l0 -135 -110 0 -110 0 0 135 0 135 110 0 110 0 0 -135z m770
0 l0 -135 -145 0 -145 0 0 135 0 135 145 0 145 0 0 -135z m46300 -685 l0 -200
-235 0 -235 0 0 200 0 200 235 0 235 0 0 -200z m1400 0 l0 -200 -235 0 -235 0
0 200 0 200 235 0 235 0 0 -200z m1410 0 l0 -200 -240 0 -240 0 0 200 0 200
240 0 240 0 0 -200z m1400 0 l0 -200 -240 0 -240 0 0 200 0 200 240 0 240 0 0
-200z m1400 0 l0 -200 -240 0 -240 0 0 200 0 200 240 0 240 0 0 -200z m1400 0
l0 -200 -235 0 -235 0 0 200 0 200 235 0 235 0 0 -200z m-57180 -220 l0 -130
-150 0 -150 0 0 130 0 130 150 0 150 0 0 -130z m690 0 l0 -130 -105 0 -105 0
0 130 0 130 105 0 105 0 0 -130z m350 0 l0 -130 -110 0 -110 0 0 130 0 130
110 0 110 0 0 -130z m650 45 l0 -85 -55 0 -55 0 0 85 0 85 55 0 55 0 0 -85z
m310 0 l0 -85 -60 0 -60 0 0 85 0 85 60 0 60 0 0 -85z m750 -45 l0 -130 -105
0 -105 0 0 130 0 130 105 0 105 0 0 -130z m350 0 l0 -130 -110 0 -110 0 0 130
0 130 110 0 110 0 0 -130z m770 0 l0 -130 -145 0 -145 0 0 130 0 130 145 0
145 0 0 -130z m46300 -285 l0 -205 -235 0 -235 0 0 205 0 205 235 0 235 0 0
-205z m1400 0 l0 -205 -235 0 -235 0 0 205 0 205 235 0 235 0 0 -205z m1410 0
l0 -205 -240 0 -240 0 0 205 0 205 240 0 240 0 0 -205z m1400 0 l0 -205 -240
0 -240 0 0 205 0 205 240 0 240 0 0 -205z m1400 0 l0 -205 -240 0 -240 0 0
205 0 205 240 0 240 0 0 -205z m1400 0 l0 -205 -235 0 -235 0 0 205 0 205 235
0 235 0 0 -205z m-55490 110 l0 -85 -55 0 -55 0 0 85 0 85 55 0 55 0 0 -85z
m310 0 l0 -85 -60 0 -60 0 0 85 0 85 60 0 60 0 0 -85z m-2000 -160 l0 -135
-150 0 -150 0 0 135 0 135 150 0 150 0 0 -135z m690 0 l0 -135 -105 0 -105 0
0 135 0 135 105 0 105 0 0 -135z m350 0 l0 -135 -110 0 -110 0 0 135 0 135
110 0 110 0 0 -135z m1710 0 l0 -135 -105 0 -105 0 0 135 0 135 105 0 105 0 0
-135z m350 0 l0 -135 -110 0 -110 0 0 135 0 135 110 0 110 0 0 -135z m770 0
l0 -135 -145 0 -145 0 0 135 0 135 145 0 145 0 0 -135z m46300 -970 l0 -205
-235 0 -235 0 0 205 0 205 235 0 235 0 0 -205z m1400 0 l0 -205 -235 0 -235 0
0 205 0 205 235 0 235 0 0 -205z m1410 0 l0 -205 -240 0 -240 0 0 205 0 205
240 0 240 0 0 -205z m1400 0 l0 -205 -240 0 -240 0 0 205 0 205 240 0 240 0 0
-205z m1400 0 l0 -205 -240 0 -240 0 0 205 0 205 240 0 240 0 0 -205z m1400 0
l0 -205 -235 0 -235 0 0 205 0 205 235 0 235 0 0 -205z m-57180 35 l0 -130
-150 0 -150 0 0 130 0 130 150 0 150 0 0 -130z m690 0 l0 -130 -105 0 -105 0
0 130 0 130 105 0 105 0 0 -130z m350 0 l0 -130 -110 0 -110 0 0 130 0 130
110 0 110 0 0 -130z m650 45 l0 -85 -55 0 -55 0 0 85 0 85 55 0 55 0 0 -85z
m310 0 l0 -85 -60 0 -60 0 0 85 0 85 60 0 60 0 0 -85z m750 -45 l0 -130 -105
0 -105 0 0 130 0 130 105 0 105 0 0 -130z m350 0 l0 -130 -110 0 -110 0 0 130
0 130 110 0 110 0 0 -130z m770 0 l0 -130 -145 0 -145 0 0 130 0 130 145 0
145 0 0 -130z m23575 15 l30 -60 3 -722 3 -723 -78 0 c-43 0 -108 -3 -146 -7
l-68 -6 3 739 c3 735 3 739 25 779 25 47 58 80 93 93 43 17 99 -22 135 -93z
m1704 67 c18 -14 43 -46 55 -71 21 -45 21 -55 24 -780 l3 -734 -68 6 c-37 4
-103 7 -146 7 l-78 0 3 728 c3 715 3 728 24 772 23 49 43 70 88 94 33 16 47
13 95 -22z m-2701 -32 c22 -14 43 -40 60 -78 l27 -57 3 -717 3 -717 -33 -5
c-18 -3 -79 -7 -135 -10 l-103 -4 0 722 c0 811 -2 785 71 851 45 40 61 43 107
15z m3613 -3 c19 -12 45 -43 59 -67 l25 -45 3 -737 2 -737 -102 5 c-57 3 -118
7 -136 10 l-33 5 3 722 3 722 25 50 c23 47 77 95 105 95 7 0 27 -10 46 -23z
m-4403 -164 c15 -34 17 -105 20 -750 l3 -713 -51 0 -51 0 3 708 c3 663 4 710
22 750 10 23 22 42 28 42 5 0 17 -17 26 -37z m5158 -10 c17 -44 19 -102 22
-750 l3 -703 -50 0 -51 0 -2 558 c-4 684 2 864 25 910 10 17 21 32 26 32 5 0
17 -21 27 -47z m-29126 -48 l0 -85 -55 0 -55 0 0 85 0 85 55 0 55 0 0 -85z
m310 0 l0 -85 -60 0 -60 0 0 85 0 85 60 0 60 0 0 -85z m-2000 -160 l0 -135
-150 0 -150 0 0 135 0 135 150 0 150 0 0 -135z m690 0 l0 -135 -105 0 -105 0
0 135 0 135 105 0 105 0 0 -135z m350 0 l0 -135 -110 0 -110 0 0 135 0 135
110 0 110 0 0 -135z m1710 10 c0 -69 1 -128 3 -132 1 -5 -46 -9 -105 -11
l-108 -3 0 136 0 135 105 0 105 0 0 -125z m350 -10 l0 -135 -110 0 -110 0 0
135 0 135 110 0 110 0 0 -135z m772 4 c2 -72 1 -133 -1 -135 -2 -2 -68 -4
-146 -4 -78 0 -144 2 -146 4 -2 2 -3 63 -1 135 l3 131 144 0 144 0 3 -131z
m46298 -209 l0 -200 -235 0 -235 0 0 200 0 200 235 0 235 0 0 -200z m1400 0
l0 -200 -235 0 -235 0 0 200 0 200 235 0 235 0 0 -200z m1410 0 l0 -200 -240
0 -240 0 0 200 0 200 240 0 240 0 0 -200z m1400 0 l0 -200 -240 0 -240 0 0
200 0 200 240 0 240 0 0 -200z m1400 0 l0 -200 -240 0 -240 0 0 200 0 200 240
0 240 0 0 -200z m1400 0 l0 -200 -235 0 -235 0 0 200 0 200 235 0 235 0 0
-200z m-57180 -730 l0 -130 -150 0 -150 0 0 130 0 130 150 0 150 0 0 -130z
m690 0 l0 -130 -105 0 -105 0 0 130 0 130 105 0 105 0 0 -130z m350 0 l0 -130
-110 0 -110 0 0 130 0 130 110 0 110 0 0 -130z m650 45 l0 -85 -55 0 -55 0 0
85 0 85 55 0 55 0 0 -85z m310 0 l0 -85 -60 0 -60 0 0 85 0 85 60 0 60 0 0
-85z m750 -45 l0 -130 -105 0 -105 0 0 130 0 130 105 0 105 0 0 -130z m350 0
l0 -130 -110 0 -110 0 0 130 0 130 110 0 110 0 0 -130z m770 1 l0 -129 -77 -4
c-43 -2 -108 -2 -145 0 -78 3 -75 -5 -70 160 l3 102 145 0 144 0 0 -129z
m-2180 -176 l0 -85 -55 0 -55 0 0 85 0 85 55 0 55 0 0 -85z m310 0 l0 -85 -60
0 -60 0 0 85 0 85 60 0 60 0 0 -85z m48170 -115 l0 -200 -235 0 -235 0 0 200
0 200 235 0 235 0 0 -200z m1400 0 l0 -200 -235 0 -235 0 0 200 0 200 235 0
235 0 0 -200z m1410 0 l0 -200 -240 0 -240 0 0 200 0 200 240 0 240 0 0 -200z
m1400 0 l0 -200 -240 0 -240 0 0 200 0 200 240 0 240 0 0 -200z m1400 0 l0
-200 -240 0 -240 0 0 200 0 200 240 0 240 0 0 -200z m1400 0 l0 -200 -235 0
-235 0 0 200 0 200 235 0 235 0 0 -200z m-57180 -40 l0 -130 -150 0 -150 0 0
130 0 130 150 0 150 0 0 -130z m690 0 l0 -130 -105 0 -105 0 0 130 0 130 105
0 105 0 0 -130z m350 0 l0 -130 -110 0 -110 0 0 130 0 130 110 0 110 0 0 -130z
m1710 0 l0 -130 -105 0 -105 0 0 130 0 130 105 0 105 0 0 -130z m350 0 l0
-130 -110 0 -110 0 0 130 0 130 110 0 110 0 0 -130z m770 1 l0 -129 -77 -4
c-43 -2 -108 -2 -145 0 l-68 3 0 129 0 130 145 0 145 0 0 -129z m46300 -461
l0 -200 -235 0 -235 0 0 200 0 200 235 0 235 0 0 -200z m1400 0 l0 -200 -235
0 -235 0 0 200 0 200 235 0 235 0 0 -200z m1410 0 l0 -200 -240 0 -240 0 0
200 0 200 240 0 240 0 0 -200z m1400 0 l0 -200 -240 0 -240 0 0 200 0 200 240
0 240 0 0 -200z m1400 0 l0 -200 -240 0 -240 0 0 200 0 200 240 0 240 0 0
-200z m1400 0 l0 -200 -235 0 -235 0 0 200 0 200 235 0 235 0 0 -200z m-31700
-165 l0 -75 -35 0 -35 0 0 75 0 75 35 0 35 0 0 -75z m5530 0 l0 -75 -35 0 -35
0 0 75 0 75 35 0 35 0 0 -75z m-6120 -20 l0 -75 -35 0 -35 0 0 75 0 75 35 0
35 0 0 -75z m6710 0 l0 -75 -35 0 -35 0 0 75 0 75 35 0 35 0 0 -75z m-31600
-295 l0 -130 -150 0 -150 0 0 130 0 130 150 0 150 0 0 -130z m690 0 l0 -130
-105 0 -105 0 0 130 0 130 105 0 105 0 0 -130z m350 0 l0 -130 -110 0 -110 0
0 130 0 130 110 0 110 0 0 -130z m650 45 l0 -85 -55 0 -55 0 0 85 0 85 55 0
55 0 0 -85z m310 0 l0 -85 -60 0 -60 0 0 85 0 85 60 0 60 0 0 -85z m750 -45
l0 -130 -105 0 -105 0 0 130 0 130 105 0 105 0 0 -130z m350 0 l0 -130 -110 0
-110 0 0 130 0 130 110 0 110 0 0 -130z m770 1 l0 -130 -52 -3 c-29 -2 -94 -2
-145 0 l-92 3 -3 47 c-2 26 -2 84 0 130 l3 82 145 0 144 0 0 -129z m-1870
-177 l0 -84 -60 0 -60 0 0 83 c0 46 2 86 4 88 2 2 29 2 60 1 l56 -4 0 -84z
m-310 1 l0 -85 -55 0 -55 0 0 85 0 85 55 0 55 0 0 -85z m-1690 -155 l0 -130
-150 0 -150 0 0 130 0 130 150 0 150 0 0 -130z m690 0 l0 -130 -105 0 -105 0
0 130 0 130 105 0 105 0 0 -130z m350 0 l0 -130 -110 0 -110 0 0 130 0 130
110 0 110 0 0 -130z m1710 0 l0 -130 -105 0 -105 0 0 130 0 130 105 0 105 0 0
-130z m350 0 l0 -130 -110 0 -110 0 0 130 0 130 110 0 110 0 0 -130z m770 1
l0 -130 -52 -3 c-29 -2 -95 -2 -145 0 l-93 3 0 130 0 129 145 0 145 0 0 -129z
m46300 -211 l0 -200 -235 0 -235 0 0 200 0 200 235 0 235 0 0 -200z m1400 0
l0 -200 -235 0 -235 0 0 200 0 200 235 0 235 0 0 -200z m1410 0 l0 -200 -240
0 -240 0 0 200 0 200 240 0 240 0 0 -200z m1400 0 l0 -200 -240 0 -240 0 0
200 0 200 240 0 240 0 0 -200z m1400 0 l0 -200 -240 0 -240 0 0 200 0 200 240
0 240 0 0 -200z m1400 0 l0 -200 -235 0 -235 0 0 200 0 200 235 0 235 0 0
-200z m-7010 -505 l0 -205 -235 0 -235 0 0 205 0 205 235 0 235 0 0 -205z
m1400 0 l0 -205 -235 0 -235 0 0 205 0 205 235 0 235 0 0 -205z m1410 0 l0
-205 -240 0 -240 0 0 205 0 205 240 0 240 0 0 -205z m1400 0 l0 -205 -240 0
-240 0 0 205 0 205 240 0 240 0 0 -205z m1400 0 l0 -205 -240 0 -240 0 0 205
0 205 240 0 240 0 0 -205z m1400 0 l0 -205 -235 0 -235 0 0 205 0 205 235 0
235 0 0 -205z m-55180 -181 l0 -84 -60 0 -60 0 0 83 c0 46 2 86 4 88 2 2 29 2
60 1 l56 -4 0 -84z m-2000 -44 l0 -130 -150 0 -150 0 0 130 0 130 150 0 150 0
0 -130z m690 0 l0 -130 -105 0 -105 0 0 130 0 130 105 0 105 0 0 -130z m350 0
l0 -130 -110 0 -110 0 0 130 0 130 110 0 110 0 0 -130z m650 45 l0 -85 -55 0
-55 0 0 85 0 85 55 0 55 0 0 -85z m1060 -45 l0 -130 -105 0 -105 0 0 130 0
130 105 0 105 0 0 -130z m350 0 l0 -130 -110 0 -110 0 0 130 0 130 110 0 110
0 0 -130z m770 0 l0 -130 -144 0 -145 0 -3 38 c-2 20 -2 79 0 130 l3 92 145 0
144 0 0 -130z m-1870 -176 l0 -84 -60 0 -60 0 0 83 c0 46 2 86 4 88 2 2 29 2
60 1 l56 -4 0 -84z m-310 1 l0 -85 -55 0 -55 0 0 85 0 85 55 0 55 0 0 -85z
m-1690 -155 l0 -130 -150 0 -150 0 0 130 0 130 150 0 150 0 0 -130z m690 0 l0
-130 -105 0 -105 0 0 130 0 130 105 0 105 0 0 -130z m350 0 l0 -130 -110 0
-110 0 0 130 0 130 110 0 110 0 0 -130z m1710 0 l0 -130 -105 0 -105 0 0 130
0 130 105 0 105 0 0 -130z m350 0 l0 -130 -110 0 -110 0 0 130 0 130 110 0
110 0 0 -130z m770 0 l0 -130 -144 0 -144 0 -4 48 c-1 26 -2 84 0 130 l4 82
144 0 144 0 0 -130z m46300 -465 l0 -205 -235 0 -235 0 0 205 0 205 235 0 235
0 0 -205z m1400 0 l0 -205 -235 0 -235 0 0 205 0 205 235 0 235 0 0 -205z
m1410 0 l0 -205 -240 0 -240 0 0 205 0 205 240 0 240 0 0 -205z m1400 0 l0
-205 -240 0 -240 0 0 205 0 205 240 0 240 0 0 -205z m1400 0 l0 -205 -240 0
-240 0 0 205 0 205 240 0 240 0 0 -205z m1400 0 l0 -205 -235 0 -235 0 0 205
0 205 235 0 235 0 0 -205z m-33140 90 l0 -75 -39 0 -39 0 -4 65 c-1 36 -1 70
0 75 2 6 21 10 43 10 l39 0 0 -75z m160 0 l0 -75 -40 0 -40 0 0 75 0 75 40 0
40 0 0 -75z m460 0 l0 -75 -45 0 -45 0 0 75 0 75 45 0 45 0 0 -75z m162 65 c2
-5 1 -39 0 -75 l-4 -65 -39 0 -39 0 0 75 0 75 39 0 c22 0 41 -4 43 -10z m1128
-65 l0 -75 -39 0 -39 0 -4 65 c-1 36 -1 70 0 75 2 6 21 10 43 10 l39 0 0 -75z
m162 65 c2 -5 1 -39 0 -75 l-4 -65 -39 0 -39 0 0 75 0 75 39 0 c22 0 41 -4 43
-10z m458 -65 l0 -75 -45 0 -45 0 0 75 0 75 45 0 45 0 0 -75z m160 0 l0 -75
-40 0 -40 0 0 75 0 75 40 0 40 0 0 -75z m1130 0 l0 -75 -40 0 -40 0 0 75 0 75
40 0 40 0 0 -75z m162 65 c2 -5 1 -39 0 -75 l-4 -65 -39 0 -39 0 0 75 0 75 39
0 c22 0 41 -4 43 -10z m458 -65 l0 -75 -45 0 -45 0 0 75 0 75 45 0 45 0 0 -75z
m160 0 l0 -75 -40 0 -40 0 0 75 0 75 40 0 40 0 0 -75z m1130 0 l0 -75 -40 0
-40 0 0 75 0 75 40 0 40 0 0 -75z m160 0 l0 -75 -40 0 -40 0 0 75 0 75 40 0
40 0 0 -75z m460 0 l0 -75 -45 0 -45 0 0 75 0 75 45 0 45 0 0 -75z m160 0 l0
-75 -40 0 -40 0 0 75 0 75 40 0 40 0 0 -75z m1130 0 l0 -75 -45 0 -45 0 0 75
0 75 45 0 45 0 0 -75z m164 58 c-1 -7 -2 -40 -2 -73 l-2 -60 -40 0 -40 0 0 76
0 75 43 -3 c26 -2 42 -8 41 -15z m456 -58 l0 -75 -45 0 -45 0 0 75 0 75 45 0
45 0 0 -75z m160 0 l0 -75 -40 0 -40 0 0 75 0 75 40 0 40 0 0 -75z m-8420
-215 l0 -70 -40 0 -40 0 0 70 0 70 40 0 40 0 0 -70z m160 0 l0 -70 -40 0 -40
0 0 70 0 70 40 0 40 0 0 -70z m460 0 l0 -70 -45 0 -45 0 0 70 0 70 45 0 45 0
0 -70z m160 0 l0 -70 -40 0 -40 0 0 70 0 70 40 0 40 0 0 -70z m1130 0 l0 -70
-40 0 -40 0 0 70 0 70 40 0 40 0 0 -70z m160 0 l0 -70 -40 0 -40 0 0 70 0 70
40 0 40 0 0 -70z m460 0 l0 -70 -45 0 -45 0 0 70 0 70 45 0 45 0 0 -70z m160
0 l0 -70 -40 0 -40 0 0 70 0 70 40 0 40 0 0 -70z m1130 0 l0 -70 -40 0 -40 0
0 70 0 70 40 0 40 0 0 -70z m160 0 l0 -70 -40 0 -40 0 0 70 0 70 40 0 40 0 0
-70z m460 0 l0 -70 -45 0 -45 0 0 70 0 70 45 0 45 0 0 -70z m160 0 l0 -70 -40
0 -40 0 0 70 0 70 40 0 40 0 0 -70z m1130 0 l0 -70 -40 0 -40 0 0 70 0 70 40
0 40 0 0 -70z m160 0 l0 -70 -40 0 -40 0 0 70 0 70 40 0 40 0 0 -70z m460 0
l0 -70 -45 0 -45 0 0 70 0 70 45 0 45 0 0 -70z m160 0 l0 -70 -40 0 -40 0 0
70 0 70 40 0 40 0 0 -70z m1130 0 l0 -70 -45 0 -45 0 0 70 0 70 45 0 45 0 0
-70z m160 0 l0 -70 -40 0 -40 0 0 70 0 70 40 0 40 0 0 -70z m460 0 l0 -70 -45
0 -45 0 0 70 0 70 45 0 45 0 0 -70z m160 0 l0 -70 -40 0 -40 0 0 70 0 70 40 0
40 0 0 -70z m-8420 -220 l0 -70 -40 0 -40 0 0 70 0 70 40 0 40 0 0 -70z m160
0 l0 -70 -40 0 -40 0 0 70 0 70 40 0 40 0 0 -70z m460 0 l0 -70 -45 0 -45 0 0
70 0 70 45 0 45 0 0 -70z m160 0 l0 -70 -40 0 -40 0 0 70 0 70 40 0 40 0 0
-70z m1130 0 l0 -70 -40 0 -40 0 0 70 0 70 40 0 40 0 0 -70z m160 0 l0 -70
-40 0 -40 0 0 70 0 70 40 0 40 0 0 -70z m460 0 l0 -70 -45 0 -45 0 0 70 0 70
45 0 45 0 0 -70z m160 0 l0 -70 -40 0 -40 0 0 70 0 70 40 0 40 0 0 -70z m1130
0 l0 -70 -40 0 -40 0 0 70 0 70 40 0 40 0 0 -70z m160 0 l0 -70 -40 0 -40 0 0
70 0 70 40 0 40 0 0 -70z m460 0 l0 -70 -45 0 -45 0 0 70 0 70 45 0 45 0 0
-70z m160 0 l0 -70 -40 0 -40 0 0 70 0 70 40 0 40 0 0 -70z m1130 0 l0 -70
-40 0 -40 0 0 70 0 70 40 0 40 0 0 -70z m160 0 l0 -70 -40 0 -40 0 0 70 0 70
40 0 40 0 0 -70z m460 0 l0 -70 -45 0 -45 0 0 70 0 70 45 0 45 0 0 -70z m160
0 l0 -70 -40 0 -40 0 0 70 0 70 40 0 40 0 0 -70z m1130 0 l0 -70 -45 0 -45 0
0 70 0 70 45 0 45 0 0 -70z m160 0 l0 -70 -40 0 -40 0 0 70 0 70 40 0 40 0 0
-70z m460 0 l0 -70 -45 0 -45 0 0 70 0 70 45 0 45 0 0 -70z m160 0 l0 -70 -40
0 -40 0 0 70 0 70 40 0 40 0 0 -70z m24720 -161 l0 -199 -235 0 -235 0 0 200
0 199 133 3 c72 2 178 2 235 0 l102 -3 0 -200z m-7010 1 l0 -200 -235 0 -235
0 0 200 0 200 235 0 235 0 0 -200z m1400 0 l0 -200 -235 0 -235 0 0 200 0 200
235 0 235 0 0 -200z m1410 0 l0 -200 -240 0 -240 0 0 200 0 200 240 0 240 0 0
-200z m1400 0 l0 -200 -240 0 -240 0 0 200 0 200 240 0 240 0 0 -200z m1400 0
l0 -200 -240 0 -240 0 0 200 0 200 240 0 240 0 0 -200z m-53780 74 l0 -84 -60
0 -60 0 0 83 c0 46 2 86 4 88 2 2 29 2 60 1 l56 -4 0 -84z m-2000 -44 l0 -130
-150 0 -150 0 0 130 0 130 150 0 150 0 0 -130z m690 0 l0 -130 -105 0 -105 0
0 130 0 130 105 0 105 0 0 -130z m350 0 l0 -130 -110 0 -110 0 0 130 0 130
110 0 110 0 0 -130z m650 45 l0 -85 -55 0 -55 0 0 85 0 85 55 0 55 0 0 -85z
m1060 -45 l0 -130 -105 0 -105 0 0 130 0 130 105 0 105 0 0 -130z m350 0 l0
-130 -110 0 -110 0 0 130 0 130 110 0 110 0 0 -130z m770 0 l0 -130 -145 0
-145 0 0 130 0 130 145 0 145 0 0 -130z m20170 -90 l0 -70 -40 0 -40 0 0 70 0
70 40 0 40 0 0 -70z m160 0 l0 -70 -40 0 -40 0 0 70 0 70 40 0 40 0 0 -70z
m460 0 l0 -70 -45 0 -45 0 0 70 0 70 45 0 45 0 0 -70z m160 0 l0 -70 -40 0
-40 0 0 70 0 70 40 0 40 0 0 -70z m1130 0 l0 -70 -40 0 -40 0 0 70 0 70 40 0
40 0 0 -70z m160 0 l0 -70 -40 0 -40 0 0 70 0 70 40 0 40 0 0 -70z m460 0 l0
-70 -45 0 -45 0 0 70 0 70 45 0 45 0 0 -70z m160 0 l0 -70 -40 0 -40 0 0 70 0
70 40 0 40 0 0 -70z m1130 0 l0 -70 -40 0 -40 0 0 70 0 70 40 0 40 0 0 -70z
m160 0 l0 -70 -40 0 -40 0 0 70 0 70 40 0 40 0 0 -70z m460 0 l0 -70 -45 0
-45 0 0 70 0 70 45 0 45 0 0 -70z m160 0 l0 -70 -40 0 -40 0 0 70 0 70 40 0
40 0 0 -70z m1130 0 l0 -70 -40 0 -40 0 0 70 0 70 40 0 40 0 0 -70z m160 0 l0
-70 -40 0 -40 0 0 70 0 70 40 0 40 0 0 -70z m460 0 l0 -70 -45 0 -45 0 0 70 0
70 45 0 45 0 0 -70z m160 0 l0 -70 -40 0 -40 0 0 70 0 70 40 0 40 0 0 -70z
m1130 0 l0 -70 -45 0 -45 0 0 70 0 70 45 0 45 0 0 -70z m160 46 c0 -13 3 -44
6 -70 l7 -46 -47 0 -46 0 0 70 0 70 40 0 c35 0 40 -3 40 -24z m460 -46 l0 -70
-45 0 -45 0 0 70 0 70 45 0 45 0 0 -70z m160 0 l0 -70 -40 0 -40 0 0 70 0 70
40 0 40 0 0 -70z m-30770 -80 l0 -90 -55 0 -55 0 0 90 0 90 55 0 55 0 0 -90z
m310 0 l0 -90 -60 0 -60 0 0 90 0 90 60 0 60 0 0 -90z m43640 -3270 l0 -3360
-25 0 -25 0 0 640 0 640 -35 0 -35 0 0 2720 0 2720 60 0 60 0 0 -3360z
m-45640 3110 l0 -130 -150 0 -150 0 0 130 0 130 150 0 150 0 0 -130z m690 0
l0 -130 -105 0 -105 0 0 130 0 130 105 0 105 0 0 -130z m350 0 l0 -130 -110 0
-110 0 0 130 0 130 110 0 110 0 0 -130z m1710 0 l0 -130 -105 0 -105 0 0 130
0 130 105 0 105 0 0 -130z m350 0 l0 -130 -110 0 -110 0 0 130 0 130 110 0
110 0 0 -130z m770 0 l0 -130 -145 0 -145 0 0 130 0 130 145 0 145 0 0 -130z
m53310 -721 l0 -199 -235 0 -235 0 0 200 0 199 133 3 c72 2 178 2 235 0 l102
-3 0 -200z m-7010 1 l0 -200 -235 0 -235 0 0 200 0 200 235 0 235 0 0 -200z
m1400 0 l0 -200 -235 0 -235 0 0 200 0 200 235 0 235 0 0 -200z m1410 0 l0
-200 -240 0 -240 0 0 200 0 200 240 0 240 0 0 -200z m1400 0 l0 -200 -240 0
-240 0 0 200 0 200 240 0 240 0 0 -200z m1400 0 l0 -200 -240 0 -240 0 0 200
0 200 240 0 240 0 0 -200z m-31281 -16 l40 -16 -24 -37 -25 -37 -100 1 c-94 1
-100 3 -119 27 -11 13 -21 31 -23 38 -9 36 177 54 251 24z m1910 0 l40 -16
-24 -37 -25 -37 -100 1 -100 1 -25 34 c-13 18 -22 37 -19 41 18 30 190 38 253
13z m1910 0 l40 -16 -24 -37 -25 -37 -100 1 -100 1 -25 34 c-13 18 -22 37 -19
41 18 30 190 38 253 13z m1910 0 l40 -16 -24 -37 -25 -37 -100 1 -100 1 -25
34 c-14 19 -25 35 -25 37 0 2 15 10 33 18 45 20 176 19 226 -1z m1910 0 l40
-16 -24 -37 -25 -37 -100 1 -100 1 -25 34 c-13 18 -22 37 -19 41 18 30 190 38
253 13z m-17459 -89 c0 -37 -4 -65 -10 -65 -6 0 -10 28 -10 65 0 37 4 65 10
65 6 0 10 -28 10 -65z m130 0 l0 -65 -30 0 -30 0 0 65 0 65 30 0 30 0 0 -65z
m450 0 l0 -65 -30 0 -30 0 0 65 0 65 30 0 30 0 0 -65z m130 0 l0 -65 -30 0
-30 0 0 65 0 65 30 0 30 0 0 -65z m750 0 l0 -65 -30 0 -30 0 0 65 0 65 30 0
30 0 0 -65z m130 0 l0 -65 -30 0 -30 0 0 65 0 65 30 0 30 0 0 -65z m450 0 l0
-65 -30 0 -30 0 0 65 0 65 30 0 30 0 0 -65z m130 0 l0 -65 -30 0 -30 0 0 65 0
65 30 0 30 0 0 -65z m750 0 l0 -65 -30 0 -30 0 0 65 0 65 30 0 30 0 0 -65z
m130 0 l0 -65 -30 0 -30 0 0 65 0 65 30 0 30 0 0 -65z m440 0 c0 -63 -1 -65
-25 -65 -24 0 -25 2 -25 65 0 63 1 65 25 65 24 0 25 -2 25 -65z m130 0 l0 -65
-30 0 -30 0 0 65 0 65 30 0 30 0 0 -65z m760 0 l0 -65 -30 0 -30 0 0 65 0 65
30 0 30 0 0 -65z m130 0 l0 -65 -30 0 -30 0 0 65 0 65 30 0 30 0 0 -65z m440
0 l0 -65 -30 0 -30 0 0 65 0 65 30 0 30 0 0 -65z m130 0 l0 -65 -30 0 -30 0 0
65 0 65 30 0 30 0 0 -65z m16960 0 l0 -65 -30 0 -30 0 0 65 0 65 30 0 30 0 0
-65z m120 0 c0 -63 -1 -65 -25 -65 -24 0 -25 2 -25 65 0 63 1 65 25 65 24 0
25 -2 25 -65z m450 0 l0 -65 -30 0 -30 0 0 65 0 65 30 0 30 0 0 -65z m130 0
l0 -65 -30 0 -30 0 0 65 0 65 30 0 30 0 0 -65z m750 0 c0 -63 -1 -65 -25 -65
-24 0 -25 2 -25 65 0 63 1 65 25 65 24 0 25 -2 25 -65z m130 0 l0 -65 -30 0
-30 0 0 65 0 65 30 0 30 0 0 -65z m450 0 l0 -65 -30 0 -30 0 0 65 0 65 30 0
30 0 0 -65z m130 0 l0 -65 -30 0 -30 0 0 65 0 65 30 0 30 0 0 -65z m750 0 l0
-65 -30 0 -30 0 0 65 0 65 30 0 30 0 0 -65z m130 0 l0 -65 -30 0 -30 0 0 65 0
65 30 0 30 0 0 -65z m1460 0 c0 -58 -2 -65 -20 -65 -18 0 -20 7 -20 65 0 58 2
65 20 65 18 0 20 -7 20 -65z m567 -32 c-2 -21 -4 -6 -4 32 0 39 2 55 4 38 2
-18 2 -50 0 -70z m1333 32 l0 -65 -30 0 -30 0 0 65 0 65 30 0 30 0 0 -65z
m100 0 c0 -51 -3 -65 -15 -65 -12 0 -15 14 -15 65 0 51 3 65 15 65 12 0 15
-14 15 -65z m-41220 -71 l0 -84 -60 0 -60 0 0 83 c0 46 2 86 4 88 2 2 29 2 60
1 l56 -4 0 -84z m-2000 -44 l0 -130 -150 0 -150 0 0 130 0 130 150 0 150 0 0
-130z m690 0 l0 -130 -105 0 -105 0 0 130 0 130 105 0 105 0 0 -130z m350 0
l0 -130 -110 0 -110 0 0 130 0 130 110 0 110 0 0 -130z m650 45 l0 -85 -55 0
-55 0 0 85 0 85 55 0 55 0 0 -85z m1060 -45 l0 -130 -105 0 -105 0 0 130 0
130 105 0 105 0 0 -130z m350 0 l0 -130 -110 0 -110 0 0 130 0 130 110 0 110
0 0 -130z m770 0 l0 -130 -145 0 -145 0 0 130 0 130 145 0 145 0 0 -130z
m20316 70 c27 -40 27 -42 11 -75 -15 -32 -21 -35 -58 -35 -41 0 -41 0 -35 32
6 32 44 118 52 118 2 0 16 -18 30 -40z m489 -77 l7 -33 -45 0 c-42 0 -44 1
-57 39 -12 37 -11 41 16 76 l28 37 22 -44 c12 -23 25 -58 29 -75z m1421 77
c27 -40 27 -42 11 -75 -15 -32 -21 -35 -58 -35 -41 0 -41 0 -35 32 6 32 44
118 52 118 2 0 16 -18 30 -40z m489 -77 l7 -33 -45 0 c-42 0 -44 1 -57 39 -12
37 -11 41 16 76 l28 37 22 -44 c12 -23 25 -58 29 -75z m1421 77 c27 -40 27
-42 11 -75 -15 -32 -21 -35 -58 -35 -41 0 -41 0 -35 32 6 32 44 118 52 118 2
0 16 -18 30 -40z m489 -77 l7 -33 -45 0 c-42 0 -44 1 -57 39 -12 37 -11 41 16
76 l28 37 22 -44 c12 -23 25 -58 29 -75z m1421 77 c27 -40 27 -42 11 -75 -15
-32 -21 -35 -58 -35 -41 0 -41 0 -35 32 6 32 44 118 52 118 2 0 16 -18 30 -40z
m489 -77 l7 -33 -45 0 c-42 0 -44 1 -57 39 -12 37 -11 41 16 76 l28 37 22 -44
c12 -23 25 -58 29 -75z m1420 78 c25 -37 26 -40 11 -75 -14 -33 -18 -36 -57
-36 -41 0 -41 0 -35 32 6 32 44 118 52 118 2 0 15 -18 29 -39z m490 -78 l7
-33 -45 0 c-42 0 -44 1 -57 39 -12 37 -11 41 16 76 l28 37 22 -44 c12 -23 25
-58 29 -75z m-7863 -4 c41 -22 48 -65 48 -284 l0 -205 -110 0 -110 0 0 210 c0
221 6 255 47 279 24 14 99 14 125 0z m1913 -5 c37 -24 45 -72 45 -286 l0 -198
-110 0 -110 0 0 210 c0 221 6 255 47 279 27 16 101 13 128 -5z m1910 0 c39
-25 45 -64 45 -280 l0 -204 -110 0 -110 0 0 210 c0 221 6 255 47 279 27 16
101 13 128 -5z m1910 0 c37 -24 45 -72 45 -286 l0 -198 -110 0 -110 0 0 210
c0 221 6 255 47 279 27 16 101 13 128 -5z m1912 1 c35 -25 43 -77 43 -287 l0
-198 -110 0 -110 0 0 210 c0 221 6 255 47 279 27 16 106 13 130 -4z m-17417
-80 c0 -37 -4 -65 -10 -65 -6 0 -10 28 -10 65 0 37 4 65 10 65 6 0 10 -28 10
-65z m130 0 l0 -65 -30 0 -30 0 0 65 0 65 30 0 30 0 0 -65z m450 0 l0 -65 -30
0 -30 0 0 65 0 65 30 0 30 0 0 -65z m130 0 l0 -65 -30 0 -30 0 0 65 0 65 30 0
30 0 0 -65z m750 0 l0 -65 -30 0 -30 0 0 65 0 65 30 0 30 0 0 -65z m130 0 l0
-65 -30 0 -30 0 0 65 0 65 30 0 30 0 0 -65z m450 0 l0 -65 -30 0 -30 0 0 65 0
65 30 0 30 0 0 -65z m130 0 l0 -65 -30 0 -30 0 0 65 0 65 30 0 30 0 0 -65z
m750 0 l0 -65 -30 0 -30 0 0 65 0 65 30 0 30 0 0 -65z m130 0 l0 -65 -30 0
-30 0 0 65 0 65 30 0 30 0 0 -65z m441 28 c7 -69 0 -93 -26 -93 -26 0 -33 24
-26 93 3 31 7 37 26 37 19 0 23 -6 26 -37z m130 0 c7 -74 1 -93 -32 -93 l-29
0 0 65 0 65 29 0 c26 0 29 -4 32 -37z m759 -28 l0 -65 -30 0 -30 0 0 65 0 65
30 0 30 0 0 -65z m130 0 l0 -65 -30 0 -30 0 0 65 0 65 30 0 30 0 0 -65z m440
0 l0 -65 -30 0 -30 0 0 65 0 65 30 0 30 0 0 -65z m130 0 l0 -65 -30 0 -30 0 0
65 0 65 30 0 30 0 0 -65z m16960 0 l0 -65 -30 0 -30 0 0 65 0 65 30 0 30 0 0
-65z m120 0 c0 -63 -1 -65 -25 -65 -24 0 -25 2 -25 65 0 63 1 65 25 65 24 0
25 -2 25 -65z m450 0 l0 -65 -30 0 -30 0 0 65 0 65 30 0 30 0 0 -65z m130 0
l0 -65 -30 0 -30 0 0 65 0 65 30 0 30 0 0 -65z m750 0 c0 -63 -1 -65 -25 -65
-24 0 -25 2 -25 65 0 63 1 65 25 65 24 0 25 -2 25 -65z m130 0 l0 -65 -30 0
-30 0 0 65 0 65 30 0 30 0 0 -65z m450 0 l0 -65 -30 0 -30 0 0 65 0 65 30 0
30 0 0 -65z m130 0 l0 -65 -30 0 -30 0 0 65 0 65 30 0 30 0 0 -65z m750 0 l0
-65 -30 0 -30 0 0 65 0 65 30 0 30 0 0 -65z m130 0 l0 -65 -30 0 -30 0 0 65 0
65 30 0 30 0 0 -65z m1460 0 c0 -58 -2 -65 -20 -65 -18 0 -20 7 -20 65 0 58 2
65 20 65 18 0 20 -7 20 -65z m567 -32 c-2 -21 -4 -6 -4 32 0 39 2 55 4 38 2
-18 2 -50 0 -70z m1333 32 l0 -65 -30 0 -30 0 0 65 0 65 30 0 30 0 0 -65z
m100 0 c0 -51 -3 -65 -15 -65 -12 0 -15 14 -15 65 0 51 3 65 15 65 12 0 15
-14 15 -65z m-41530 -70 l0 -85 -55 0 -55 0 0 85 0 85 55 0 55 0 0 -85z m310
1 l0 -84 -56 -4 c-31 -1 -58 -1 -60 1 -2 2 -4 42 -4 88 l0 83 60 0 60 0 0 -84z
m48170 -116 l0 -200 -235 0 -235 0 0 200 0 200 235 0 235 0 0 -200z m1400 0
l0 -200 -235 0 -235 0 0 200 0 200 235 0 235 0 0 -200z m1410 0 l0 -200 -240
0 -240 0 0 200 0 200 240 0 240 0 0 -200z m1400 0 l0 -200 -240 0 -240 0 0
200 0 200 240 0 240 0 0 -200z m1400 0 l0 -200 -240 0 -240 0 0 200 0 200 240
0 240 0 0 -200z m1400 0 l0 -199 -192 -3 c-106 -2 -212 -2 -235 0 l-43 3 0
200 0 199 235 0 235 0 0 -200z m-33000 70 l0 -50 -50 0 -50 0 0 50 0 50 50 0
50 0 0 -50z m510 0 l0 -50 -45 0 -45 0 0 50 0 50 45 0 45 0 0 -50z m1400 0 l0
-50 -50 0 -50 0 0 50 0 50 50 0 50 0 0 -50z m510 0 l0 -50 -45 0 -45 0 0 50 0
50 45 0 45 0 0 -50z m1400 0 l0 -50 -50 0 -50 0 0 50 0 50 50 0 50 0 0 -50z
m510 0 l0 -50 -45 0 -45 0 0 50 0 50 45 0 45 0 0 -50z m1400 0 l0 -50 -50 0
-50 0 0 50 0 50 50 0 50 0 0 -50z m510 0 l0 -50 -45 0 -45 0 0 50 0 50 45 0
45 0 0 -50z m1400 0 l0 -50 -50 0 -50 0 0 50 0 50 50 0 50 0 0 -50z m510 0 l0
-50 -45 0 -45 0 0 50 0 50 45 0 45 0 0 -50z m-32330 -120 l0 -130 -150 0 -150
0 0 130 0 130 150 0 150 0 0 -130z m692 93 c2 -21 2 -80 0 -130 l-3 -93 -105
0 -104 0 0 130 0 130 104 0 105 0 3 -37z m348 -93 l0 -130 -110 0 -110 0 0
130 0 130 110 0 110 0 0 -130z m1710 0 l0 -130 -105 0 -105 0 0 130 0 130 105
0 105 0 0 -130z m350 0 l0 -130 -110 0 -110 0 0 130 0 130 110 0 110 0 0 -130z
m770 0 l0 -130 -145 0 -145 0 0 130 0 130 145 0 145 0 0 -130z m20310 -110 l0
-60 -50 0 -50 0 0 60 0 60 50 0 50 0 0 -60z m512 38 c2 -13 1 -40 0 -60 -4
-39 -20 -48 -69 -40 -21 4 -23 10 -23 63 l0 59 44 0 c39 0 45 -3 48 -22z
m1398 -38 l0 -60 -50 0 -50 0 0 60 0 60 50 0 50 0 0 -60z m510 0 l0 -60 -45 0
-45 0 0 60 0 60 45 0 45 0 0 -60z m1400 0 l0 -60 -50 0 -50 0 0 60 0 60 50 0
50 0 0 -60z m510 0 l0 -60 -45 0 -45 0 0 60 0 60 45 0 45 0 0 -60z m1400 0 l0
-60 -50 0 -50 0 0 60 0 60 50 0 50 0 0 -60z m510 0 l0 -60 -45 0 -45 0 0 60 0
60 45 0 45 0 0 -60z m1400 0 l0 -60 -50 0 -50 0 0 60 0 60 50 0 50 0 0 -60z
m510 0 l0 -60 -45 0 -45 0 0 60 0 60 45 0 45 0 0 -60z m-8150 -280 l0 -100
-50 0 -50 0 0 100 0 100 50 0 50 0 0 -100z m320 -155 l0 -255 -110 0 -110 0 0
255 0 255 110 0 110 0 0 -255z m190 155 l0 -100 -45 0 -45 0 0 100 0 100 45 0
45 0 0 -100z m1400 0 l0 -100 -50 0 -50 0 0 100 0 100 50 0 50 0 0 -100z m320
-155 l0 -255 -110 0 -110 0 0 255 0 255 110 0 110 0 0 -255z m190 155 l0 -100
-45 0 -45 0 0 100 0 100 45 0 45 0 0 -100z m1400 0 l0 -100 -50 0 -50 0 0 100
0 100 50 0 50 0 0 -100z m320 -155 l0 -255 -110 0 -110 0 0 255 0 255 110 0
110 0 0 -255z m190 155 l0 -100 -45 0 -45 0 0 100 0 100 45 0 45 0 0 -100z
m1400 0 l0 -100 -50 0 -50 0 0 100 0 100 50 0 50 0 0 -100z m320 -155 l0 -255
-110 0 -110 0 0 255 0 255 110 0 110 0 0 -255z m190 155 l0 -100 -45 0 -45 0
0 100 0 100 45 0 45 0 0 -100z m1400 0 l0 -100 -50 0 -50 0 0 100 0 100 50 0
50 0 0 -100z m320 -155 l0 -255 -110 0 -110 0 0 255 0 255 110 0 110 0 0 -255z
m190 155 l0 -100 -45 0 -45 0 0 100 0 100 45 0 45 0 0 -100z m-17222 -29 l23
-12 -20 -31 c-19 -31 -20 -31 -104 -32 l-85 -1 -21 33 -21 32 22 9 c13 4 30
11 38 14 24 10 143 1 168 -12z m1434 9 c48 -14 51 -21 26 -56 -20 -28 -23 -29
-105 -28 -81 1 -85 2 -103 29 -10 16 -17 32 -14 37 15 24 133 35 196 18z
m1481 -9 l27 -11 -21 -32 -21 -33 -84 1 c-78 1 -85 2 -104 27 -12 15 -19 31
-15 37 18 29 155 36 218 11z m1459 -1 l27 -13 -24 -30 c-22 -29 -26 -31 -105
-31 -79 -1 -83 0 -102 26 -10 16 -17 32 -13 38 18 29 161 36 217 10z m17630
10 c48 -14 54 -24 28 -57 -19 -24 -26 -26 -104 -27 l-83 -2 -22 33 -21 33 22
9 c59 22 124 26 180 11z m1486 -9 l23 -12 -20 -31 c-19 -31 -20 -31 -104 -32
-82 -1 -86 0 -104 26 -10 15 -17 31 -15 35 10 31 171 40 220 14z m1455 1 l27
-12 -21 -32 -21 -33 -85 1 c-81 1 -85 2 -103 29 -10 16 -17 32 -14 37 17 27
159 33 217 10z m1315 -73 c-23 -15 -36 -10 -59 22 -25 35 -18 48 33 58 33 7
33 7 36 -33 2 -24 -2 -42 -10 -47z m-26532 -42 c16 -26 18 -37 10 -59 -8 -24
-15 -28 -48 -28 -21 0 -38 5 -38 11 0 16 42 109 49 109 3 0 15 -15 27 -33z
m394 -9 c30 -66 27 -80 -17 -76 -30 2 -38 8 -46 30 -7 22 -4 34 13 58 12 16
24 30 26 30 3 0 14 -19 24 -42z m1080 -20 c0 -4 -4 -18 -10 -32 -8 -21 -16
-26 -46 -26 -34 0 -36 1 -29 28 3 15 14 42 23 61 l16 34 23 -29 c12 -16 23
-32 23 -36z m400 -45 c0 -8 -14 -13 -35 -13 -27 0 -37 6 -49 27 -13 25 -12 30
12 62 l27 34 22 -49 c13 -27 23 -55 23 -61z m1040 77 c19 -27 21 -35 10 -60
-10 -25 -18 -30 -46 -30 -26 0 -34 4 -34 18 0 18 36 102 44 102 2 0 14 -14 26
-30z m399 -25 c12 -31 21 -58 21 -60 0 -3 -17 -5 -38 -5 -33 0 -40 4 -48 28
-8 22 -6 33 10 59 12 18 24 33 28 33 4 0 16 -25 27 -55z m1060 21 c18 -29 20
-38 10 -60 -10 -21 -19 -26 -50 -26 -36 0 -37 1 -30 28 9 31 39 92 45 92 3 0
14 -15 25 -34z m387 2 c9 -17 20 -44 25 -60 7 -27 7 -28 -31 -28 -33 0 -39 4
-48 29 -8 22 -6 34 10 60 11 17 22 31 24 31 2 0 11 -14 20 -32z m17270 -1 c16
-26 18 -37 10 -59 -8 -24 -15 -28 -48 -28 -21 0 -38 2 -38 5 0 13 42 115 48
115 4 0 16 -15 28 -33z m394 -9 c29 -64 26 -78 -14 -78 -28 0 -36 5 -46 29
-10 26 -9 33 11 60 13 17 24 31 26 31 2 0 13 -19 23 -42z m1074 -50 c-12 -23
-21 -28 -49 -28 -41 0 -42 5 -13 72 l22 51 27 -33 c26 -31 27 -35 13 -62z
m394 23 c17 -49 16 -53 -25 -49 -30 2 -38 8 -46 30 -7 22 -4 34 13 58 21 29
23 30 35 13 6 -10 17 -33 23 -52z m1072 7 c0 -4 -4 -18 -10 -32 -8 -21 -16
-26 -45 -26 -42 0 -43 9 -14 77 l21 48 24 -30 c13 -16 24 -33 24 -37z m1439
31 c20 -27 21 -34 11 -60 -10 -23 -19 -29 -41 -29 -26 0 -29 4 -29 30 0 26 24
90 33 90 2 0 13 -14 26 -31z m1847 -1 c9 -17 20 -44 25 -60 7 -27 6 -28 -30
-28 -31 0 -40 5 -50 26 -10 22 -8 31 10 60 11 19 22 34 25 34 2 0 11 -14 20
-32z m-28033 -69 c41 -19 47 -48 47 -239 l0 -180 -90 0 -90 0 0 190 c0 189 0
191 25 215 26 27 68 32 108 14z m1471 -10 l26 -20 0 -195 0 -194 -91 0 -91 0
4 191 3 191 28 24 c35 30 85 31 121 3z m1461 -4 c25 -24 25 -26 25 -215 l0
-190 -90 0 -90 0 0 181 c0 182 5 210 39 236 28 22 89 16 116 -12z m1460 0 c25
-24 25 -26 25 -215 l0 -190 -90 0 -90 0 0 190 c0 189 0 191 25 215 18 19 35
25 65 25 30 0 47 -6 65 -25z m17646 12 c34 -26 39 -54 39 -236 l0 -181 -90 0
-90 0 0 190 c0 189 0 191 25 215 27 28 88 34 116 12z m1466 -11 l28 -24 3
-191 3 -191 -90 0 -91 0 0 194 0 195 26 20 c36 28 86 27 121 -3z m1457 3 l26
-20 0 -195 0 -194 -90 0 -90 0 0 174 c0 95 5 187 11 203 18 53 94 70 143 32z
m1366 -194 l0 -215 -30 0 -30 0 0 180 c0 202 7 233 58 249 1 1 2 -96 2 -214z
m-17200 100 l0 -95 -50 0 -50 0 0 95 0 95 50 0 50 0 0 -95z m512 85 c2 -5 2
-48 0 -95 l-3 -85 -45 0 -44 0 0 95 0 95 44 0 c24 0 46 -4 48 -10z m1398 -85
l0 -95 -50 0 -50 0 0 95 0 95 50 0 50 0 0 -95z m510 0 l0 -95 -45 0 -45 0 0
95 0 95 45 0 45 0 0 -95z m1400 0 l0 -95 -50 0 -50 0 0 95 0 95 50 0 50 0 0
-95z m510 0 l0 -95 -45 0 -45 0 0 95 0 95 45 0 45 0 0 -95z m1400 0 l0 -95
-50 0 -50 0 0 95 0 95 50 0 50 0 0 -95z m510 0 l0 -95 -45 0 -45 0 0 95 0 95
45 0 45 0 0 -95z m1400 0 l0 -95 -50 0 -50 0 0 95 0 95 50 0 50 0 0 -95z m510
0 l0 -95 -45 0 -45 0 0 95 0 95 45 0 45 0 0 -95z m-17500 -60 l0 -45 -40 0
-40 0 0 45 0 45 40 0 40 0 0 -45z m430 0 c0 -45 0 -45 -35 -45 -35 0 -35 0
-35 45 0 45 0 45 35 45 35 0 35 0 35 -45z m1020 0 c0 -45 0 -45 -35 -45 -35 0
-35 0 -35 45 0 45 0 45 35 45 35 0 35 0 35 -45z m440 0 c0 -45 0 -45 -35 -45
-35 0 -35 0 -35 45 0 45 0 45 35 45 35 0 35 0 35 -45z m1020 0 l0 -45 -40 0
-40 0 0 45 0 45 40 0 40 0 0 -45z m440 0 l0 -45 -40 0 -40 0 0 45 0 45 40 0
40 0 0 -45z m1020 0 l0 -45 -40 0 -40 0 0 45 0 45 40 0 40 0 0 -45z m440 0 l0
-45 -40 0 -40 0 0 45 0 45 40 0 40 0 0 -45z m17220 0 l0 -45 -40 0 -40 0 0 45
0 45 40 0 40 0 0 -45z m440 0 l0 -45 -40 0 -40 0 0 45 0 45 40 0 40 0 0 -45z
m1010 0 c0 -45 0 -45 -35 -45 -35 0 -35 0 -35 45 0 45 0 45 35 45 35 0 35 0
35 -45z m440 0 c0 -45 0 -45 -35 -45 -35 0 -35 0 -35 45 0 45 0 45 35 45 35 0
35 0 35 -45z m1020 0 c0 -45 0 -45 -35 -45 -35 0 -35 0 -35 45 0 45 0 45 35
45 35 0 35 0 35 -45z m1460 0 c0 -41 -2 -45 -25 -45 -23 0 -25 4 -25 45 0 41
2 45 25 45 23 0 25 -4 25 -45z m1900 0 l0 -45 -40 0 -40 0 0 45 0 45 40 0 40
0 0 -45z m7040 -205 l0 -200 -235 0 -235 0 0 200 0 200 235 0 235 0 0 -200z
m1400 0 l0 -200 -235 0 -235 0 0 200 0 200 235 0 235 0 0 -200z m4210 0 l0
-200 -240 0 -240 0 0 200 0 200 240 0 240 0 0 -200z m1400 0 l0 -199 -192 -3
c-106 -2 -212 -2 -235 0 l-43 3 0 200 0 199 235 0 235 0 0 -200z m-57180 30
l0 -130 -150 0 -150 0 0 130 0 130 150 0 150 0 0 -130z m690 0 l0 -130 -105 0
-105 0 0 130 0 130 105 0 105 0 0 -130z m350 0 l0 -130 -110 0 -110 0 0 130 0
130 110 0 110 0 0 -130z m650 45 l0 -85 -55 0 -55 0 0 85 0 85 55 0 55 0 0
-85z m310 0 l0 -85 -60 0 -60 0 0 85 0 85 60 0 60 0 0 -85z m750 -45 l0 -130
-105 0 -105 0 0 130 0 130 105 0 105 0 0 -130z m350 0 l0 -130 -110 0 -110 0
0 130 0 130 110 0 110 0 0 -130z m770 0 l0 -130 -145 0 -145 0 0 130 0 130
145 0 145 0 0 -130z m10960 -25 l0 -55 -40 0 -40 0 0 55 0 55 40 0 40 0 0 -55z
m430 0 l0 -55 -35 0 -35 0 0 55 0 55 35 0 35 0 0 -55z m1020 0 l0 -55 -35 0
-35 0 0 55 0 55 35 0 35 0 0 -55z m440 0 l0 -55 -35 0 -35 0 0 55 0 55 35 0
35 0 0 -55z m1020 0 l0 -55 -40 0 -40 0 0 55 0 55 40 0 40 0 0 -55z m440 0 l0
-55 -40 0 -40 0 0 55 0 55 40 0 40 0 0 -55z m1020 0 l0 -55 -40 0 -40 0 0 55
0 55 40 0 40 0 0 -55z m440 0 l0 -55 -40 0 -40 0 0 55 0 55 40 0 40 0 0 -55z
m17220 0 l0 -55 -40 0 -40 0 0 55 0 55 40 0 40 0 0 -55z m440 0 l0 -55 -40 0
-40 0 0 55 0 55 40 0 40 0 0 -55z m1010 0 l0 -55 -35 0 -35 0 0 55 0 55 35 0
35 0 0 -55z m440 0 l0 -55 -35 0 -35 0 0 55 0 55 35 0 35 0 0 -55z m1020 0 l0
-55 -35 0 -35 0 0 55 0 55 35 0 35 0 0 -55z m1460 0 c0 -52 -1 -55 -25 -55
-24 0 -25 3 -25 55 0 52 1 55 25 55 24 0 25 -3 25 -55z m1900 0 l0 -55 -40 0
-40 0 0 55 0 55 40 0 40 0 0 -55z m-41440 -140 l0 -85 -55 0 -55 0 0 85 0 85
55 0 55 0 0 -85z m310 0 l0 -85 -60 0 -60 0 0 85 0 85 60 0 60 0 0 -85z
m12830 -95 l0 -80 -40 0 -40 0 0 80 0 80 40 0 40 0 0 -80z m270 -135 l0 -215
-90 0 -90 0 0 215 0 215 90 0 90 0 0 -215z m160 135 l0 -80 -35 0 -35 0 0 80
0 80 35 0 35 0 0 -80z m1020 0 l0 -80 -35 0 -35 0 0 80 0 80 35 0 35 0 0 -80z
m270 -135 l0 -215 -90 0 -90 0 0 215 0 215 90 0 90 0 0 -215z m170 135 l0 -80
-35 0 -35 0 0 80 0 80 35 0 35 0 0 -80z m1020 0 l0 -80 -40 0 -40 0 0 80 0 80
40 0 40 0 0 -80z m270 -135 l0 -215 -90 0 -90 0 0 215 0 215 90 0 90 0 0 -215z
m170 135 l0 -80 -40 0 -40 0 0 80 0 80 40 0 40 0 0 -80z m1020 0 l0 -80 -40 0
-40 0 0 80 0 80 40 0 40 0 0 -80z m270 -135 l0 -215 -90 0 -90 0 0 215 0 215
90 0 90 0 0 -215z m170 135 l0 -80 -40 0 -40 0 0 80 0 80 40 0 40 0 0 -80z
m17220 0 l0 -80 -40 0 -40 0 0 80 0 80 40 0 40 0 0 -80z m270 -135 l0 -215
-90 0 -90 0 0 215 0 215 90 0 90 0 0 -215z m170 135 l0 -80 -40 0 -40 0 0 80
0 80 40 0 40 0 0 -80z m1010 0 l0 -80 -35 0 -35 0 0 80 0 80 35 0 35 0 0 -80z
m280 -135 l0 -215 -90 0 -90 0 0 215 0 215 90 0 90 0 0 -215z m160 135 l0 -80
-35 0 -35 0 0 80 0 80 35 0 35 0 0 -80z m1020 0 l0 -80 -35 0 -35 0 0 80 0 80
35 0 35 0 0 -80z m270 -135 l0 -215 -90 0 -90 0 0 215 0 215 90 0 90 0 0 -215z
m1190 135 c0 -79 0 -80 -25 -80 -25 0 -25 1 -25 80 0 79 0 80 25 80 25 0 25
-1 25 -80z m150 -135 l0 -215 -30 0 -30 0 0 215 0 215 30 0 30 0 0 -215z
m1750 135 l0 -80 -40 0 -40 0 0 80 0 80 40 0 40 0 0 -80z m-43130 -70 l0 -130
-150 0 -150 0 0 130 0 130 150 0 150 0 0 -130z m690 0 l0 -130 -105 0 -105 0
0 130 0 130 105 0 105 0 0 -130z m350 0 l0 -130 -110 0 -110 0 0 130 0 130
110 0 110 0 0 -130z m1710 0 l0 -130 -105 0 -105 0 0 130 0 130 105 0 105 0 0
-130z m350 0 l0 -130 -110 0 -110 0 0 130 0 130 110 0 110 0 0 -130z m770 0
l0 -130 -145 0 -145 0 0 130 0 130 145 0 145 0 0 -130z m46300 -205 l0 -205
-235 0 -235 0 0 205 0 205 235 0 235 0 0 -205z m1400 0 l0 -205 -235 0 -235 0
0 205 0 205 235 0 235 0 0 -205z m4210 0 l0 -205 -240 0 -240 0 0 205 0 205
240 0 240 0 0 -205z m1400 0 l0 -205 -234 0 -235 0 -3 123 c-2 67 -2 159 0
205 l3 82 234 0 235 0 0 -205z m-42350 5 l0 -80 -40 0 -40 0 0 80 0 80 40 0
40 0 0 -80z m430 0 l0 -80 -35 0 -35 0 0 80 0 80 35 0 35 0 0 -80z m1020 0 l0
-80 -35 0 -35 0 0 80 0 80 35 0 35 0 0 -80z m440 0 l0 -80 -35 0 -35 0 0 80 0
80 35 0 35 0 0 -80z m1020 0 l0 -80 -40 0 -40 0 0 80 0 80 40 0 40 0 0 -80z
m440 0 l0 -80 -40 0 -40 0 0 80 0 80 40 0 40 0 0 -80z m1020 0 l0 -80 -40 0
-40 0 0 80 0 80 40 0 40 0 0 -80z m440 0 l0 -80 -40 0 -40 0 0 80 0 80 40 0
40 0 0 -80z m17220 0 l0 -80 -40 0 -40 0 0 80 0 80 40 0 40 0 0 -80z m440 0
l0 -80 -40 0 -40 0 0 80 0 80 40 0 40 0 0 -80z m1010 0 l0 -80 -35 0 -35 0 0
80 0 80 35 0 35 0 0 -80z m440 0 l0 -80 -35 0 -35 0 0 80 0 80 35 0 35 0 0
-80z m1020 0 l0 -80 -35 0 -35 0 0 80 0 80 35 0 35 0 0 -80z m1460 0 c0 -79 0
-80 -25 -80 -25 0 -25 1 -25 80 0 79 0 80 25 80 25 0 25 -1 25 -80z m1900 0
l0 -80 -40 0 -40 0 0 80 0 80 40 0 40 0 0 -80z m-18890 -500 l0 -120 -70 0
-70 0 0 120 0 120 70 0 70 0 0 -120z m210 0 l0 -120 -65 0 -65 0 0 120 0 120
65 0 65 0 0 -120z m222 10 c2 -61 2 -115 0 -120 -2 -6 -33 -10 -68 -10 l-64 0
0 120 0 120 64 0 65 0 3 -110z m1478 -10 l0 -120 -70 0 -70 0 0 120 0 120 70
0 70 0 0 -120z m220 0 l0 -120 -70 0 -70 0 0 120 0 120 70 0 70 0 0 -120z
m210 0 l0 -120 -65 0 -65 0 0 120 0 120 65 0 65 0 0 -120z m1480 0 l0 -120
-70 0 -70 0 0 120 0 120 70 0 70 0 0 -120z m212 10 c2 -61 2 -115 0 -120 -2
-6 -33 -10 -68 -10 l-64 0 0 120 0 120 64 0 65 0 3 -110z m218 -10 l0 -120
-65 0 -65 0 0 120 0 120 65 0 65 0 0 -120z m1480 0 l0 -120 -70 0 -70 0 0 120
0 120 70 0 70 0 0 -120z m220 0 l0 -120 -70 0 -70 0 0 120 0 120 70 0 70 0 0
-120z m210 0 l0 -120 -65 0 -65 0 0 120 0 120 65 0 65 0 0 -120z m1480 0 l0
-120 -70 0 -70 0 0 120 0 120 70 0 70 0 0 -120z m210 0 l0 -120 -65 0 -65 0 0
120 0 120 65 0 65 0 0 -120z m220 0 l0 -120 -65 0 -65 0 0 120 0 120 65 0 65
0 0 -120z m-32310 -300 l0 -130 -150 0 -150 0 0 130 0 130 150 0 150 0 0 -130z
m690 0 l0 -130 -105 0 -105 0 0 130 0 130 105 0 105 0 0 -130z m350 0 l0 -130
-110 0 -110 0 0 130 0 130 110 0 110 0 0 -130z m1710 0 l0 -130 -105 0 -105 0
0 130 0 130 105 0 105 0 0 -130z m350 0 l0 -130 -110 0 -110 0 0 130 0 130
110 0 110 0 0 -130z m770 0 l0 -130 -145 0 -145 0 0 130 0 130 145 0 145 0 0
-130z m20370 -30 l0 -120 -70 0 -70 0 0 120 0 120 70 0 70 0 0 -120z m210 0
l0 -120 -65 0 -65 0 0 120 0 120 65 0 65 0 0 -120z m220 0 l0 -120 -65 0 -65
0 0 120 0 120 65 0 65 0 0 -120z m1480 0 l0 -120 -70 0 -70 0 0 120 0 120 70
0 70 0 0 -120z m220 0 l0 -120 -70 0 -70 0 0 120 0 120 70 0 70 0 0 -120z
m210 0 l0 -120 -65 0 -65 0 0 120 0 120 65 0 65 0 0 -120z m1480 0 l0 -120
-70 0 -70 0 0 120 0 120 70 0 70 0 0 -120z m210 0 l0 -120 -65 0 -65 0 0 120
0 120 65 0 65 0 0 -120z m220 0 l0 -120 -65 0 -65 0 0 120 0 120 65 0 65 0 0
-120z m1480 0 l0 -120 -70 0 -70 0 0 120 0 120 70 0 70 0 0 -120z m220 0 l0
-120 -70 0 -70 0 0 120 0 120 70 0 70 0 0 -120z m210 0 l0 -120 -65 0 -65 0 0
120 0 120 65 0 65 0 0 -120z m1480 0 l0 -120 -70 0 -70 0 0 120 0 120 70 0 70
0 0 -120z m210 0 l0 -120 -65 0 -65 0 0 120 0 120 65 0 65 0 0 -120z m220 0
l0 -120 -65 0 -65 0 0 120 0 120 65 0 65 0 0 -120z m-17430 -240 l0 -100 -60
0 -60 0 0 100 0 100 60 0 60 0 0 -100z m180 0 l0 -100 -55 0 -55 0 0 100 0
100 55 0 55 0 0 -100z m190 0 l0 -100 -55 0 -55 0 0 100 0 100 55 0 55 0 0
-100z m1080 0 l0 -100 -55 0 -55 0 0 100 0 100 55 0 55 0 0 -100z m190 0 l0
-100 -55 0 -55 0 0 100 0 100 55 0 55 0 0 -100z m190 0 l0 -100 -55 0 -55 0 0
100 0 100 55 0 55 0 0 -100z m1080 0 l0 -100 -55 0 -55 0 0 100 0 100 55 0 55
0 0 -100z m190 0 l0 -100 -55 0 -55 0 0 100 0 100 55 0 55 0 0 -100z m180 0
l0 -100 -55 0 -55 0 0 100 0 100 55 0 55 0 0 -100z m1090 0 l0 -100 -55 0 -55
0 0 100 0 100 55 0 55 0 0 -100z m190 0 l0 -100 -55 0 -55 0 0 100 0 100 55 0
55 0 0 -100z m180 0 l0 -100 -55 0 -55 0 0 100 0 100 55 0 55 0 0 -100z
m17290 0 l0 -100 -55 0 -55 0 0 100 0 100 55 0 55 0 0 -100z m180 0 l0 -100
-55 0 -55 0 0 100 0 100 55 0 55 0 0 -100z m190 0 l0 -100 -55 0 -55 0 0 100
0 100 55 0 55 0 0 -100z m1090 0 l0 -100 -60 0 -60 0 0 100 0 100 60 0 60 0 0
-100z m180 0 l0 -100 -55 0 -55 0 0 100 0 100 55 0 55 0 0 -100z m190 0 l0
-100 -55 0 -55 0 0 100 0 100 55 0 55 0 0 -100z m1080 0 l0 -100 -55 0 -55 0
0 100 0 100 55 0 55 0 0 -100z m190 0 l0 -100 -55 0 -55 0 0 100 0 100 55 0
55 0 0 -100z m100 0 c0 -82 -3 -100 -15 -100 -12 0 -15 18 -15 100 0 82 3 100
15 100 12 0 15 -18 15 -100z m1170 0 l0 -100 -50 0 -50 0 0 100 0 100 50 0 50
0 0 -100z m100 0 c0 -60 -4 -100 -10 -100 -6 0 -10 40 -10 100 0 60 4 100 10
100 6 0 10 -40 10 -100z m1730 0 l0 -100 -45 0 -45 0 0 100 0 100 45 0 45 0 0
-100z m-43110 -65 l0 -135 -150 0 -150 0 0 135 0 135 150 0 150 0 0 -135z
m690 0 l0 -135 -105 0 -105 0 0 135 0 135 105 0 105 0 0 -135z m350 0 l0 -135
-110 0 -110 0 0 135 0 135 110 0 110 0 0 -135z m1710 0 l0 -135 -105 0 -105 0
0 135 0 135 105 0 105 0 0 -135z m350 0 l0 -135 -110 0 -110 0 0 135 0 135
110 0 110 0 0 -135z m770 0 l0 -135 -145 0 -145 0 0 135 0 135 145 0 145 0 0
-135z m20370 -25 l0 -120 -70 0 -70 0 0 120 0 120 70 0 70 0 0 -120z m210 0
l0 -120 -65 0 -65 0 0 120 0 120 65 0 65 0 0 -120z m220 0 l0 -120 -65 0 -65
0 0 120 0 120 65 0 65 0 0 -120z m1480 0 l0 -120 -70 0 -70 0 0 120 0 120 70
0 70 0 0 -120z m220 0 l0 -120 -70 0 -70 0 0 120 0 120 70 0 70 0 0 -120z
m210 0 l0 -120 -65 0 -65 0 0 120 0 120 65 0 65 0 0 -120z m1480 0 l0 -120
-70 0 -70 0 0 120 0 120 70 0 70 0 0 -120z m210 0 l0 -120 -65 0 -65 0 0 120
0 120 65 0 65 0 0 -120z m220 0 l0 -120 -65 0 -65 0 0 120 0 120 65 0 65 0 0
-120z m1480 0 l0 -120 -70 0 -70 0 0 120 0 120 70 0 70 0 0 -120z m220 0 l0
-120 -70 0 -70 0 0 120 0 120 70 0 70 0 0 -120z m210 0 l0 -120 -65 0 -65 0 0
120 0 120 65 0 65 0 0 -120z m1480 0 l0 -120 -70 0 -70 0 0 120 0 120 70 0 70
0 0 -120z m210 0 l0 -120 -65 0 -65 0 0 120 0 120 65 0 65 0 0 -120z m220 0
l0 -120 -65 0 -65 0 0 120 0 120 65 0 65 0 0 -120z m-17430 -190 l0 -100 -60
0 -60 0 0 100 0 100 60 0 60 0 0 -100z m180 0 l0 -100 -55 0 -55 0 0 100 0
100 55 0 55 0 0 -100z m190 0 l0 -100 -55 0 -55 0 0 100 0 100 55 0 55 0 0
-100z m1080 0 l0 -100 -55 0 -55 0 0 100 0 100 55 0 55 0 0 -100z m190 0 l0
-100 -55 0 -55 0 0 100 0 100 55 0 55 0 0 -100z m190 0 l0 -100 -55 0 -55 0 0
100 0 100 55 0 55 0 0 -100z m1080 0 l0 -100 -55 0 -55 0 0 100 0 100 55 0 55
0 0 -100z m190 0 l0 -100 -55 0 -55 0 0 100 0 100 55 0 55 0 0 -100z m180 0
l0 -100 -55 0 -55 0 0 100 0 100 55 0 55 0 0 -100z m1090 0 l0 -100 -55 0 -55
0 0 100 0 100 55 0 55 0 0 -100z m190 0 l0 -100 -55 0 -55 0 0 100 0 100 55 0
55 0 0 -100z m180 0 l0 -100 -55 0 -55 0 0 100 0 100 55 0 55 0 0 -100z
m17290 0 l0 -100 -55 0 -55 0 0 100 0 100 55 0 55 0 0 -100z m180 0 l0 -100
-55 0 -55 0 0 100 0 100 55 0 55 0 0 -100z m190 0 l0 -100 -55 0 -55 0 0 100
0 100 55 0 55 0 0 -100z m1090 0 l0 -100 -60 0 -60 0 0 100 0 100 60 0 60 0 0
-100z m180 0 l0 -100 -55 0 -55 0 0 100 0 100 55 0 55 0 0 -100z m190 0 l0
-100 -55 0 -55 0 0 100 0 100 55 0 55 0 0 -100z m1080 0 l0 -100 -55 0 -55 0
0 100 0 100 55 0 55 0 0 -100z m190 0 l0 -100 -55 0 -55 0 0 100 0 100 55 0
55 0 0 -100z m100 0 c0 -82 -3 -100 -15 -100 -12 0 -15 18 -15 100 0 82 3 100
15 100 12 0 15 -18 15 -100z m1170 0 l0 -100 -50 0 -50 0 0 100 0 100 50 0 50
0 0 -100z m100 0 c0 -60 -4 -100 -10 -100 -6 0 -10 40 -10 100 0 60 4 100 10
100 6 0 10 -40 10 -100z m1730 0 l0 -100 -45 0 -45 0 0 100 0 100 45 0 45 0 0
-100z m-18870 -140 l0 -120 -70 0 -70 0 0 120 0 120 70 0 70 0 0 -120z m210 0
l0 -120 -65 0 -65 0 0 120 0 120 65 0 65 0 0 -120z m222 68 c2 -29 2 -83 0
-120 l-4 -68 -64 0 -64 0 0 120 0 120 64 0 65 0 3 -52z m1478 -68 l0 -120 -70
0 -70 0 0 120 0 120 70 0 70 0 0 -120z m220 0 l0 -120 -70 0 -70 0 0 120 0
120 70 0 70 0 0 -120z m210 0 l0 -120 -65 0 -65 0 0 120 0 120 65 0 65 0 0
-120z m1480 0 l0 -120 -70 0 -70 0 0 120 0 120 70 0 70 0 0 -120z m212 68 c2
-29 2 -83 0 -120 l-4 -68 -64 0 -64 0 0 120 0 120 64 0 65 0 3 -52z m218 -68
l0 -120 -65 0 -65 0 0 120 0 120 65 0 65 0 0 -120z m1480 0 l0 -120 -70 0 -70
0 0 120 0 120 70 0 70 0 0 -120z m220 0 l0 -120 -70 0 -70 0 0 120 0 120 70 0
70 0 0 -120z m210 0 l0 -120 -65 0 -65 0 0 120 0 120 65 0 65 0 0 -120z m1480
0 l0 -120 -70 0 -70 0 0 120 0 120 70 0 70 0 0 -120z m210 0 l0 -120 -65 0
-65 0 0 120 0 120 65 0 65 0 0 -120z m220 0 l0 -120 -65 0 -65 0 0 120 0 120
65 0 65 0 0 -120z m-17430 -139 l0 -99 -37 -3 c-84 -8 -83 -10 -83 102 l0 99
60 0 60 0 0 -99z m180 -1 l0 -100 -55 0 -55 0 0 100 0 100 55 0 55 0 0 -100z
m190 0 l0 -100 -55 0 -55 0 0 100 0 100 55 0 55 0 0 -100z m1082 84 c2 -9 2
-54 0 -100 l-3 -84 -55 0 -54 0 0 100 0 100 54 0 c42 0 55 -4 58 -16z m188
-84 l0 -100 -55 0 -55 0 0 100 0 100 55 0 55 0 0 -100z m190 0 l0 -100 -54 0
-55 0 -3 84 c-4 119 -6 116 58 116 l54 0 0 -100z m1080 0 l0 -100 -55 0 -55 0
0 100 0 100 55 0 55 0 0 -100z m190 0 l0 -100 -55 0 -55 0 0 100 0 100 55 0
55 0 0 -100z m182 84 c2 -9 2 -54 0 -100 l-3 -84 -55 0 -54 0 0 100 0 100 54
0 c42 0 55 -4 58 -16z m1088 -84 l0 -100 -55 0 -55 0 0 100 0 100 55 0 55 0 0
-100z m190 0 l0 -100 -54 0 -55 0 -3 84 c-4 119 -6 116 58 116 l54 0 0 -100z
m180 0 l0 -100 -55 0 -55 0 0 100 0 100 55 0 55 0 0 -100z m17290 0 l0 -100
-55 0 -55 0 0 100 0 100 55 0 55 0 0 -100z m180 0 l0 -100 -55 0 -55 0 0 100
0 100 55 0 55 0 0 -100z m190 0 l0 -100 -55 0 -55 0 0 100 0 100 55 0 55 0 0
-100z m1090 0 l0 -100 -60 0 -60 0 0 100 0 100 60 0 60 0 0 -100z m180 0 l0
-100 -55 0 -55 0 0 100 0 100 55 0 55 0 0 -100z m190 0 l0 -100 -55 0 -55 0 0
100 0 100 55 0 55 0 0 -100z m1080 0 l0 -100 -55 0 -55 0 0 100 0 100 55 0 55
0 0 -100z m190 0 l0 -100 -55 0 -55 0 0 100 0 100 55 0 55 0 0 -100z m100 0
c0 -82 -3 -100 -15 -100 -12 0 -15 18 -15 100 0 82 3 100 15 100 12 0 15 -18
15 -100z m1170 0 l0 -100 -50 0 -50 0 0 100 0 100 50 0 50 0 0 -100z m100 0
c0 -60 -4 -100 -10 -100 -6 0 -10 40 -10 100 0 60 4 100 10 100 6 0 10 -40 10
-100z m1730 0 l0 -100 -45 0 -45 0 0 100 0 100 45 0 45 0 0 -100z m-28230
-279 l0 -99 -37 -3 c-84 -8 -83 -10 -83 102 l0 99 60 0 60 0 0 -99z m180 -1
l0 -100 -55 0 -55 0 0 100 0 100 55 0 55 0 0 -100z m190 0 l0 -100 -55 0 -55
0 0 100 0 100 55 0 55 0 0 -100z m1080 0 l0 -100 -55 0 -55 0 0 100 0 100 55
0 55 0 0 -100z m190 0 l0 -100 -55 0 -55 0 0 100 0 100 55 0 55 0 0 -100z
m190 0 l0 -100 -55 0 -55 0 0 100 0 100 55 0 55 0 0 -100z m1080 0 l0 -100
-55 0 -55 0 0 100 0 100 55 0 55 0 0 -100z m190 0 l0 -100 -55 0 -55 0 0 100
0 100 55 0 55 0 0 -100z m180 0 l0 -100 -55 0 -55 0 0 100 0 100 55 0 55 0 0
-100z m1090 0 l0 -100 -55 0 -55 0 0 100 0 100 55 0 55 0 0 -100z m190 0 l0
-100 -55 0 -55 0 0 100 0 100 55 0 55 0 0 -100z m180 0 l0 -100 -55 0 -55 0 0
100 0 100 55 0 55 0 0 -100z m17290 0 l0 -100 -55 0 -55 0 0 100 0 100 55 0
55 0 0 -100z m180 0 l0 -100 -55 0 -55 0 0 100 0 100 55 0 55 0 0 -100z m190
0 l0 -100 -55 0 -55 0 0 100 0 100 55 0 55 0 0 -100z m1090 0 l0 -100 -60 0
-60 0 0 100 0 100 60 0 60 0 0 -100z m180 0 l0 -100 -55 0 -55 0 0 100 0 100
55 0 55 0 0 -100z m190 0 l0 -100 -55 0 -55 0 0 100 0 100 55 0 55 0 0 -100z
m1080 0 l0 -100 -55 0 -55 0 0 100 0 100 55 0 55 0 0 -100z m190 0 l0 -100
-55 0 -55 0 0 100 0 100 55 0 55 0 0 -100z m100 0 c0 -82 -3 -100 -15 -100
-12 0 -15 18 -15 100 0 82 3 100 15 100 12 0 15 -18 15 -100z m1170 0 l0 -100
-50 0 -50 0 0 100 0 100 50 0 50 0 0 -100z m100 0 c0 -60 -4 -100 -10 -100 -6
0 -10 40 -10 100 0 60 4 100 10 100 6 0 10 -40 10 -100z m1730 0 l0 -100 -45
0 -45 0 0 100 0 100 45 0 45 0 0 -100z m10130 -760 l0 -700 -290 0 -290 0 0
700 0 700 290 0 290 0 0 -700z m980 0 l0 -700 -290 0 -290 0 0 700 0 700 290
0 290 0 0 -700z m-53930 485 l0 -155 -55 0 -55 0 0 155 0 155 55 0 55 0 0
-155z m-160 -5 l0 -150 -55 0 -55 0 0 144 c0 161 -4 152 73 155 l37 1 0 -150z
m298 144 c22 -6 22 -9 22 -150 l0 -144 -55 0 -55 0 0 150 0 150 33 0 c17 0 42
-3 55 -6z m-458 -154 l0 -140 -55 0 -56 0 3 123 3 122 50 17 c28 9 51 17 53
18 1 0 2 -63 2 -140z m599 119 l41 -12 0 -124 0 -123 -55 0 -55 0 0 141 c0
117 2 140 14 136 8 -3 32 -11 55 -18z m2211 -139 l0 -120 -35 0 -35 0 0 110
c0 115 6 129 53 130 15 0 17 -12 17 -120z m98 114 c21 -6 22 -11 22 -120 l0
-114 -35 0 -35 0 0 120 c0 126 0 126 48 114z m812 -114 l0 -120 -35 0 -35 0 0
114 c0 120 1 124 48 125 22 1 22 -1 22 -119z m94 114 c13 -5 16 -25 16 -120
l0 -114 -35 0 -35 0 0 120 c0 112 1 120 19 120 11 0 26 -3 35 -6z m-3964 -124
l0 -110 -60 0 -60 0 0 83 0 84 48 26 c26 15 53 27 60 27 9 0 12 -29 12 -110z
m900 85 l50 -25 0 -85 0 -85 -55 0 -55 0 0 110 c0 61 2 110 5 110 3 0 28 -11
55 -25z m1950 -100 l0 -95 -41 0 c-34 0 -40 3 -35 18 2 9 8 33 11 52 7 33 50
120 60 120 3 0 5 -43 5 -95z m318 27 c11 -26 23 -64 27 -84 l7 -38 -41 0 -41
0 0 96 c0 108 10 114 48 26z m582 -27 l0 -95 -39 0 -38 0 8 46 c7 39 55 144
66 144 1 0 3 -43 3 -95z m334 -7 c25 -79 23 -88 -24 -88 l-40 0 0 98 1 97 23
-29 c13 -16 31 -51 40 -78z m-4244 -23 l0 -65 -70 0 c-38 0 -70 4 -70 9 0 11
120 121 132 121 4 0 8 -29 8 -65z m1250 -9 l54 -56 -72 0 -72 0 0 65 c0 78 4
78 90 -9z m25623 -195 c43 -11 96 -30 118 -43 l39 -22 0 -593 0 -593 -390 0
-390 0 0 143 c-2 969 0 1039 18 1053 100 77 412 105 605 55z m1910 0 c43 -11
96 -30 118 -43 l39 -22 0 -593 0 -593 -390 0 -390 0 0 143 c-2 969 0 1039 18
1053 100 77 412 105 605 55z m1910 0 c43 -11 96 -30 118 -43 l39 -22 0 -593 0
-593 -390 0 -390 0 0 593 0 593 29 17 c126 75 405 97 594 48z m-30413 -341 l0
-320 -215 0 -215 0 0 320 0 320 215 0 215 0 0 -320z m510 0 l0 -320 -215 0
-215 0 0 320 0 320 215 0 215 0 0 -320z m520 0 l0 -320 -215 0 -215 0 0 320 0
320 215 0 215 0 0 -320z m1030 0 l0 -320 -210 0 -210 0 0 320 0 320 210 0 210
0 0 -320z m1020 0 l0 -320 -215 0 -215 0 0 320 0 320 215 0 215 0 0 -320z
m900 -235 l0 -555 -215 0 -215 0 0 555 0 555 215 0 215 0 0 -555z m17810 305
l0 -70 -40 0 -40 0 0 70 0 70 40 0 40 0 0 -70z m160 0 l0 -70 -40 0 -40 0 0
70 0 70 40 0 40 0 0 -70z m2610 0 l0 -70 -40 0 -40 0 0 70 0 70 40 0 40 0 0
-70z m160 0 l0 -70 -40 0 -40 0 0 70 0 70 40 0 40 0 0 -70z m7180 0 l0 -70
-40 0 -40 0 0 70 0 70 40 0 40 0 0 -70z m160 0 l0 -70 -40 0 -40 0 0 70 0 70
40 0 40 0 0 -70z m2610 0 l0 -70 -40 0 -40 0 0 70 0 70 40 0 40 0 0 -70z m160
0 l0 -70 -40 0 -40 0 0 70 0 70 40 0 40 0 0 -70z m-15280 19 c80 -12 164 -50
208 -92 l32 -31 0 -403 0 -403 -350 0 -350 0 0 400 0 399 30 34 c72 83 257
124 430 96z m17655 1 c78 -12 154 -43 203 -84 l32 -28 0 -409 0 -409 -345 0
-345 0 0 404 0 404 46 41 c85 75 238 105 409 81z m-15415 -265 l0 -75 -40 0
-40 0 0 75 0 75 40 0 40 0 0 -75z m160 0 l0 -75 -40 0 -40 0 0 75 0 75 40 0
40 0 0 -75z m2610 0 l0 -75 -40 0 -40 0 0 75 0 75 40 0 40 0 0 -75z m160 0 l0
-75 -40 0 -40 0 0 75 0 75 40 0 40 0 0 -75z m7180 0 l0 -75 -40 0 -40 0 0 75
0 75 40 0 40 0 0 -75z m160 0 l0 -75 -40 0 -40 0 0 75 0 75 40 0 40 0 0 -75z
m2610 0 l0 -75 -40 0 -40 0 0 75 0 75 40 0 40 0 0 -75z m160 0 l0 -75 -40 0
-40 0 0 75 0 75 40 0 40 0 0 -75z"/>
<path d="M3590 12205 l0 -1925 828 0 827 0 -3 1100 -2 1100 1100 0 1100 0 0
825 0 825 -1925 0 -1925 0 0 -1925z"/>
<path d="M11300 13305 l0 -825 1100 0 1100 0 0 -1100 0 -1100 825 0 825 0 0
1925 0 1925 -1925 0 -1925 0 0 -825z"/>
<path d="M20720 13510 c-737 -48 -1355 -333 -1860 -856 -347 -360 -566 -757
-679 -1234 -119 -498 -102 -1082 45 -1569 121 -398 322 -734 624 -1045 156
-160 278 -263 445 -375 413 -277 872 -424 1440 -462 716 -48 1363 155 1928
604 56 44 178 156 272 248 l169 167 -136 143 c-76 79 -249 259 -386 399 l-249
255 -33 -40 c-18 -22 -83 -89 -145 -150 -284 -280 -609 -438 -1008 -491 -164
-22 -450 -14 -589 15 -562 121 -1017 560 -1157 1119 -87 346 -75 770 30 1085
123 368 400 680 769 865 211 106 378 152 634 174 448 38 874 -92 1226 -372 83
-66 235 -217 296 -292 l30 -38 369 419 c203 231 371 424 373 429 1 5 -58 70
-132 144 -445 448 -948 715 -1536 817 -228 40 -515 56 -740 41z"/>
<path d="M30565 13510 c-740 -46 -1349 -325 -1860 -851 -412 -424 -641 -896
-732 -1504 -25 -171 -25 -649 0 -820 78 -519 256 -939 563 -1321 295 -368 712
-677 1144 -847 532 -209 1184 -254 1778 -121 507 113 948 359 1333 743 452
452 697 958 775 1602 22 179 22 529 0 707 -41 342 -128 636 -273 921 -297 584
-856 1083 -1474 1314 -371 139 -828 204 -1254 177z m477 -1065 c480 -83 897
-411 1137 -891 242 -486 242 -1144 1 -1627 -232 -463 -623 -777 -1093 -879
-87 -19 -133 -22 -317 -22 -239 0 -333 14 -507 75 -513 181 -929 674 -1042
1234 -102 507 -8 1031 254 1415 286 420 669 660 1130 710 104 11 332 4 437
-15z"/>
<path d="M24042 10708 l3 -2683 1743 -3 1742 -2 0 540 0 540 -1145 0 -1145 0
0 2145 0 2145 -600 0 -600 0 2 -2682z"/>
<path d="M34523 11718 c3 -1833 0 -1719 63 -2022 141 -676 536 -1192 1139
-1487 305 -149 613 -222 995 -236 613 -22 1146 136 1570 466 499 387 763 932
820 1686 6 88 10 716 10 1703 l0 1562 -600 0 -599 0 -4 -1592 c-4 -1745 -1
-1667 -63 -1906 -91 -353 -318 -642 -600 -767 -150 -66 -357 -96 -543 -77
-265 26 -460 119 -631 298 -200 209 -313 483 -350 843 -6 67 -10 645 -10 1652
l0 1549 -600 0 -601 0 4 -1672z"/>
<path d="M40360 10706 l0 -2686 938 0 c945 0 1238 7 1489 35 887 98 1508 411
1927 970 104 140 149 212 224 361 219 439 321 1007 283 1569 -49 712 -272
1249 -691 1665 -373 370 -861 605 -1476 709 -319 55 -296 54 -1536 58 l-1158
4 0 -2685z m2314 1610 c502 -85 812 -250 1042 -556 72 -95 169 -284 209 -405
72 -222 106 -541 87 -811 -32 -453 -157 -761 -411 -1014 -226 -226 -490 -349
-886 -416 -82 -14 -193 -18 -627 -21 l-528 -5 0 1627 0 1627 508 -5 c412 -3
525 -7 606 -21z"/>
<path d="M48282 10708 l3 -2683 600 0 600 0 5 1673 5 1672 1274 -1675 1273
-1675 597 2 596 3 3 2683 2 2682 -600 0 -600 0 -2 -1721 -3 -1722 -1310 1719
-1311 1719 -567 3 -567 2 2 -2682z"/>
<path d="M55017 10712 c-636 -1472 -1157 -2681 -1157 -2685 0 -4 287 -6 637
-5 l637 3 248 575 247 575 1127 0 1126 0 248 -575 247 -575 637 -3 c372 -1
636 2 636 7 0 5 -518 1207 -1151 2672 -633 1465 -1153 2670 -1156 2677 -4 9
-131 12 -587 12 l-582 0 -1157 -2678z m2073 308 c179 -418 327 -765 328 -770
3 -7 -228 -10 -663 -10 -387 0 -665 4 -663 9 22 59 664 1531 668 1531 3 0 151
-342 330 -760z"/>
<path d="M59440 12870 l0 -520 755 0 755 0 2 -2162 3 -2163 600 0 600 0 3
2162 2 2163 758 2 757 3 3 518 2 517 -2120 0 -2120 0 0 -520z"/>
<path d="M64550 10705 l0 -2685 598 2 597 3 3 2683 2 2682 -600 0 -600 0 0
-2685z"/>
<path d="M66760 12448 c208 -519 694 -1726 1078 -2683 l700 -1740 508 0 508 0
1077 2680 1078 2680 -647 3 c-355 1 -649 -1 -652 -5 -4 -5 -310 -766 -680
-1693 -370 -927 -676 -1689 -680 -1693 -4 -5 -313 756 -687 1690 l-679 1698
-651 3 -652 2 379 -942z"/>
<path d="M72342 10708 l3 -2683 1978 -3 1977 -2 0 535 0 535 -1375 0 -1375 0
0 555 0 555 1200 0 1200 0 0 510 0 510 -1200 0 -1200 0 0 550 0 550 1333 2
1332 3 3 533 2 532 -1940 0 -1940 0 2 -2682z"/>
<path d="M3590 4495 l0 -1925 1925 0 1925 0 0 825 0 825 -1100 0 -1100 0 0
1100 0 1100 -825 0 -825 0 0 -1925z"/>
<path d="M13500 5320 l0 -1100 -1100 2 -1100 3 0 -827 0 -828 1925 0 1925 0 0
1925 0 1925 -825 0 -825 0 0 -1100z"/>
<path d="M35660 5934 c-397 -49 -715 -210 -985 -496 -331 -352 -464 -833 -375
-1353 84 -490 439 -931 904 -1126 217 -90 388 -123 651 -123 282 0 478 42 702
149 156 74 278 161 414 293 138 133 229 256 304 407 111 225 145 371 152 655
5 179 2 221 -16 329 -106 625 -577 1105 -1216 1241 -78 17 -144 22 -300 25
-110 2 -216 1 -235 -1z m378 -600 c253 -52 478 -237 611 -501 127 -255 127
-642 0 -896 -71 -140 -187 -279 -306 -363 -214 -153 -496 -193 -763 -108 -219
69 -436 277 -535 513 -61 145 -70 196 -70 406 0 167 3 200 23 274 48 175 140
328 274 457 123 118 276 199 422 223 87 15 261 12 344 -5z"/>
<path d="M32375 5886 c-124 -20 -231 -53 -335 -102 -292 -138 -461 -381 -477
-684 -18 -361 144 -617 505 -799 112 -56 206 -93 417 -162 300 -99 420 -170
467 -276 24 -53 29 -184 10 -250 -25 -85 -113 -172 -219 -215 -53 -21 -72 -23
-238 -22 -166 0 -187 2 -268 27 -146 45 -294 129 -403 229 l-41 38 -179 -196
c-98 -108 -180 -200 -182 -204 -4 -10 106 -106 200 -172 155 -112 376 -200
598 -240 154 -27 440 -29 585 -4 258 46 457 139 608 285 183 176 265 397 254
676 -16 394 -214 641 -654 816 -43 17 -166 60 -273 95 -396 132 -490 202 -490
370 0 80 21 133 70 181 69 67 163 95 320 94 153 0 253 -23 375 -84 68 -33 194
-118 220 -147 10 -11 21 -20 24 -20 9 0 336 379 336 389 0 13 -125 118 -197
167 -138 92 -294 157 -473 196 -118 25 -442 34 -560 14z"/>
<path d="M19230 4365 l0 -1505 338 2 337 3 5 931 5 932 397 -807 396 -806 202
-3 201 -2 404 812 404 813 0 -937 1 -938 340 0 340 0 0 1505 0 1505 -456 -2
-457 -3 -385 -818 c-212 -449 -388 -815 -390 -812 -3 3 -177 371 -386 818
l-381 812 -458 3 -457 2 0 -1505z"/>
<path d="M24331 5828 c-10 -24 -298 -691 -641 -1483 -342 -792 -626 -1450
-631 -1462 l-9 -23 359 0 358 0 139 325 139 325 631 0 630 0 140 -325 139
-325 359 0 c337 0 358 1 352 18 -4 9 -296 686 -649 1504 l-642 1488 -328 0
-328 0 -18 -42z m535 -1293 l182 -425 -370 0 c-348 0 -370 1 -364 18 26 68
361 832 365 832 3 0 88 -192 187 -425z"/>
<path d="M26750 4364 l0 -1506 653 5 c600 4 662 6 784 25 401 64 667 181 876
387 280 275 416 635 417 1102 1 616 -251 1067 -731 1308 -160 81 -424 152
-648 175 -59 6 -366 10 -727 10 l-624 0 0 -1506z m1390 888 c290 -69 463 -199
571 -428 57 -120 79 -223 86 -399 7 -180 -6 -294 -48 -420 -73 -221 -217 -374
-435 -465 -149 -62 -223 -72 -571 -77 l-313 -5 0 912 0 912 313 -5 c268 -4
324 -7 397 -25z"/>
<path d="M30070 4365 l0 -1505 338 2 337 3 3 1503 2 1502 -340 0 -340 0 0
-1505z"/>
<path d="M38000 4365 l0 -1505 335 0 335 0 2 940 3 940 715 -940 715 -940 335
2 335 3 3 1503 2 1502 -340 0 -340 0 -2 -960 -3 -960 -730 959 -730 960 -317
0 -318 1 0 -1505z"/>
<path d="M42510 4145 l0 -225 16978 2 16977 3 3 223 2 222 -16980 0 -16980 0
0 -225z"/>
</g>
</svg>